{
.appVersion = "99";
copyright = "Copyright © 2020 by Eleanor Lilly Marie Hensel.";
date = "2020-05-29 18:57:41 +0000";
designer = "Eleanor Lilly Marie Hensel";
familyName = "Eleanor 2nd - 04";
featurePrefixes = (
{
automatic = 1;
code = "languagesystem DFLT dflt;\012";
name = Languagesystems;
}
);
fontMaster = (
{
alignmentZones = (
"{700, 16}",
"{500, 16}",
"{500, 15}",
"{0, -15}",
"{-10, -15}"
);
ascender = 700;
capHeight = 500;
descender = -10;
id = "489FF050-567D-4B2A-9DE5-E24268F9D2E9";
weightValue = 0;
widthValue = 0;
xHeight = 500;
}
);
glyphs = (
{
glyphname = A;
lastChange = "2020-05-30 07:46:19 +0000";
layers = (
{
layerId = "489FF050-567D-4B2A-9DE5-E24268F9D2E9";
paths = (
{
closed = 1;
nodes = (
"187 645 OFFCURVE",
"186 641 OFFCURVE",
"186 638 CURVE",
"175 592 OFFCURVE",
"163 547 OFFCURVE",
"153 501 CURVE",
"145 465 OFFCURVE",
"135 430 OFFCURVE",
"123 395 CURVE",
"121 389 OFFCURVE",
"120 384 OFFCURVE",
"129 384 CURVE",
"142 383 OFFCURVE",
"154 377 OFFCURVE",
"166 371 CURVE",
"180 363 OFFCURVE",
"196 363 OFFCURVE",
"212 360 CURVE",
"248 353 OFFCURVE",
"285 357 OFFCURVE",
"322 352 CURVE",
"325 352 OFFCURVE",
"329 351 OFFCURVE",
"331 355 CURVE",
"333 358 OFFCURVE",
"330 361 OFFCURVE",
"328 364 CURVE",
"316 385 OFFCURVE",
"306 407 OFFCURVE",
"297 430 CURVE",
"286 460 OFFCURVE",
"273 489 OFFCURVE",
"259 518 CURVE",
"243 554 OFFCURVE",
"224 589 OFFCURVE",
"205 624 CURVE",
"201 632 OFFCURVE",
"199 642 OFFCURVE",
"191 650 CURVE"
);
},
{
closed = 1;
nodes = (
"34 10 OFFCURVE",
"28 9 OFFCURVE",
"22 8 CURVE",
"3 5 OFFCURVE",
"-4 13 OFFCURVE",
"2 32 CURVE",
"6 46 OFFCURVE",
"10 60 OFFCURVE",
"11 75 CURVE",
"11 87 OFFCURVE",
"16 98 OFFCURVE",
"19 109 CURVE",
"27 142 OFFCURVE",
"33 176 OFFCURVE",
"41 210 CURVE",
"48 237 OFFCURVE",
"60 263 OFFCURVE",
"68 290 CURVE",
"73 307 OFFCURVE",
"76 325 OFFCURVE",
"80 342 CURVE",
"84 359 OFFCURVE",
"86 377 OFFCURVE",
"95 392 CURVE",
"100 402 OFFCURVE",
"99 413 OFFCURVE",
"102 423 CURVE",
"113 457 OFFCURVE",
"122 490 OFFCURVE",
"129 524 CURVE",
"134 548 OFFCURVE",
"142 571 OFFCURVE",
"147 595 CURVE",
"152 622 OFFCURVE",
"161 648 OFFCURVE",
"166 676 CURVE",
"167 685 OFFCURVE",
"174 689 OFFCURVE",
"183 687 CURVE",
"185 686 OFFCURVE",
"187 684 OFFCURVE",
"189 684 CURVE",
"209 681 OFFCURVE",
"216 667 OFFCURVE",
"222 650 CURVE",
"233 624 OFFCURVE",
"247 600 OFFCURVE",
"262 576 CURVE",
"270 562 OFFCURVE",
"276 546 OFFCURVE",
"283 531 CURVE",
"297 499 OFFCURVE",
"312 468 OFFCURVE",
"324 435 CURVE",
"334 408 OFFCURVE",
"346 383 OFFCURVE",
"359 358 CURVE",
"362 352 OFFCURVE",
"365 347 OFFCURVE",
"373 348 CURVE",
"381 350 OFFCURVE",
"385 344 OFFCURVE",
"389 338 CURVE",
"393 333 OFFCURVE",
"395 328 OFFCURVE",
"388 323 CURVE",
"381 319 OFFCURVE",
"382 314 OFFCURVE",
"386 308 CURVE",
"402 283 OFFCURVE",
"413 256 OFFCURVE",
"428 231 CURVE",
"438 214 OFFCURVE",
"445 196 OFFCURVE",
"454 180 CURVE",
"467 157 OFFCURVE",
"479 134 OFFCURVE",
"492 111 CURVE",
"497 103 OFFCURVE",
"499 93 OFFCURVE",
"507 85 CURVE",
"511 80 OFFCURVE",
"509 75 OFFCURVE",
"505 70 CURVE",
"500 65 OFFCURVE",
"495 62 OFFCURVE",
"488 66 CURVE",
"483 68 OFFCURVE",
"478 72 OFFCURVE",
"477 78 CURVE",
"469 108 OFFCURVE",
"448 131 OFFCURVE",
"436 159 CURVE",
"425 182 OFFCURVE",
"412 204 OFFCURVE",
"401 227 CURVE",
"386 256 OFFCURVE",
"370 284 OFFCURVE",
"354 313 CURVE",
"350 320 OFFCURVE",
"346 322 OFFCURVE",
"338 323 CURVE",
"321 324 OFFCURVE",
"303 323 OFFCURVE",
"286 326 CURVE",
"283 327 OFFCURVE",
"279 327 OFFCURVE",
"276 327 CURVE",
"239 326 OFFCURVE",
"203 330 OFFCURVE",
"167 342 CURVE",
"161 344 OFFCURVE",
"154 345 OFFCURVE",
"148 346 CURVE",
"139 347 OFFCURVE",
"130 348 OFFCURVE",
"124 356 CURVE",
"118 363 OFFCURVE",
"114 361 OFFCURVE",
"111 352 CURVE",
"110 347 OFFCURVE",
"109 343 OFFCURVE",
"108 338 CURVE",
"105 312 OFFCURVE",
"96 288 OFFCURVE",
"87 264 CURVE",
"77 240 OFFCURVE",
"72 216 OFFCURVE",
"67 191 CURVE",
"63 171 OFFCURVE",
"57 152 OFFCURVE",
"53 133 CURVE",
"47 107 OFFCURVE",
"40 81 OFFCURVE",
"36 54 CURVE",
"36 51 OFFCURVE",
"35 48 OFFCURVE",
"34 46 CURVE",
"29 35 OFFCURVE",
"27 24 OFFCURVE",
"39 17 CURVE"
);
}
);
width = 515;
}
);
unicode = 0041;
},
{
glyphname = Aring;
lastChange = "2020-05-30 07:46:57 +0000";
layers = (
{
layerId = "489FF050-567D-4B2A-9DE5-E24268F9D2E9";
paths = (
{
closed = 1;
nodes = (
"170 725 OFFCURVE",
"172 716 OFFCURVE",
"174 707 CURVE",
"175 703 OFFCURVE",
"176 700 OFFCURVE",
"181 699 CURVE",
"193 696 OFFCURVE",
"205 695 OFFCURVE",
"218 697 CURVE",
"225 699 OFFCURVE",
"231 703 OFFCURVE",
"233 711 CURVE",
"235 720 OFFCURVE",
"237 729 OFFCURVE",
"240 737 CURVE",
"248 760 OFFCURVE",
"237 778 OFFCURVE",
"222 793 CURVE",
"212 804 OFFCURVE",
"194 804 OFFCURVE",
"185 787 CURVE",
"177 771 OFFCURVE",
"170 753 OFFCURVE",
"171 735 CURVE"
);
},
{
closed = 1;
nodes = (
"63 309 OFFCURVE",
"60 308 OFFCURVE",
"59 297 CURVE",
"57 277 OFFCURVE",
"54 257 OFFCURVE",
"55 237 CURVE",
"56 203 OFFCURVE",
"54 170 OFFCURVE",
"45 138 CURVE",
"42 125 OFFCURVE",
"41 112 OFFCURVE",
"40 99 CURVE",
"38 76 OFFCURVE",
"32 54 OFFCURVE",
"32 32 CURVE",
"32 21 OFFCURVE",
"30 11 OFFCURVE",
"28 0 CURVE",
"28 -5 OFFCURVE",
"13 -12 OFFCURVE",
"8 -9 CURVE",
"6 -7 OFFCURVE",
"6 -4 OFFCURVE",
"6 -1 CURVE",
"17 52 OFFCURVE",
"20 106 OFFCURVE",
"30 160 CURVE",
"35 190 OFFCURVE",
"41 220 OFFCURVE",
"40 251 CURVE",
"39 282 OFFCURVE",
"44 312 OFFCURVE",
"52 342 CURVE",
"57 366 OFFCURVE",
"67 388 OFFCURVE",
"76 411 CURVE",
"77 414 OFFCURVE",
"79 417 OFFCURVE",
"79 420 CURVE",
"81 447 OFFCURVE",
"97 468 OFFCURVE",
"111 490 CURVE",
"112 492 OFFCURVE",
"114 494 OFFCURVE",
"114 497 CURVE",
"114 499 OFFCURVE",
"114 500 OFFCURVE",
"114 501 CURVE",
"132 524 OFFCURVE",
"128 555 OFFCURVE",
"140 580 CURVE",
"147 596 OFFCURVE",
"154 612 OFFCURVE",
"162 628 CURVE",
"171 645 OFFCURVE",
"181 661 OFFCURVE",
"181 682 CURVE",
"178 686 OFFCURVE",
"172 685 OFFCURVE",
"167 685 CURVE",
"158 686 OFFCURVE",
"154 690 OFFCURVE",
"152 700 CURVE",
"149 717 OFFCURVE",
"151 733 OFFCURVE",
"153 750 CURVE",
"155 767 OFFCURVE",
"162 782 OFFCURVE",
"169 796 CURVE",
"181 819 OFFCURVE",
"212 825 OFFCURVE",
"233 809 CURVE",
"249 796 OFFCURVE",
"256 777 OFFCURVE",
"265 760 CURVE",
"266 757 OFFCURVE",
"265 754 OFFCURVE",
"264 751 CURVE",
"261 736 OFFCURVE",
"255 721 OFFCURVE",
"252 706 CURVE",
"249 693 OFFCURVE",
"238 684 OFFCURVE",
"225 683 CURVE",
"206 680 OFFCURVE",
"197 671 OFFCURVE",
"188 655 CURVE",
"169 624 OFFCURVE",
"158 592 OFFCURVE",
"150 558 CURVE",
"144 536 OFFCURVE",
"138 513 OFFCURVE",
"126 493 CURVE",
"117 478 OFFCURVE",
"111 462 OFFCURVE",
"103 447 CURVE",
"93 426 OFFCURVE",
"88 405 OFFCURVE",
"80 383 CURVE",
"75 369 OFFCURVE",
"71 354 OFFCURVE",
"68 340 CURVE",
"64 328 OFFCURVE",
"68 325 OFFCURVE",
"80 326 CURVE",
"115 329 OFFCURVE",
"149 333 OFFCURVE",
"183 332 CURVE",
"233 331 OFFCURVE",
"282 333 OFFCURVE",
"331 335 CURVE",
"342 336 OFFCURVE",
"343 338 OFFCURVE",
"338 348 CURVE",
"328 371 OFFCURVE",
"317 393 OFFCURVE",
"307 417 CURVE",
"293 453 OFFCURVE",
"279 489 OFFCURVE",
"266 526 CURVE",
"251 570 OFFCURVE",
"228 609 OFFCURVE",
"206 649 CURVE",
"205 650 OFFCURVE",
"205 650 OFFCURVE",
"205 651 CURVE",
"202 656 OFFCURVE",
"194 661 OFFCURVE",
"203 668 CURVE",
"211 673 OFFCURVE",
"218 671 OFFCURVE",
"223 662 CURVE",
"237 636 OFFCURVE",
"253 611 OFFCURVE",
"266 585 CURVE",
"285 543 OFFCURVE",
"299 499 OFFCURVE",
"315 456 CURVE",
"321 438 OFFCURVE",
"329 421 OFFCURVE",
"337 404 CURVE",
"347 385 OFFCURVE",
"356 367 OFFCURVE",
"363 347 CURVE",
"366 338 OFFCURVE",
"371 335 OFFCURVE",
"380 336 CURVE",
"382 337 OFFCURVE",
"385 338 OFFCURVE",
"388 338 CURVE",
"391 339 OFFCURVE",
"394 339 OFFCURVE",
"395 336 CURVE",
"397 332 OFFCURVE",
"394 330 OFFCURVE",
"391 328 CURVE",
"387 327 OFFCURVE",
"383 326 OFFCURVE",
"379 324 CURVE",
"374 323 OFFCURVE",
"372 319 OFFCURVE",
"375 314 CURVE",
"384 291 OFFCURVE",
"390 268 OFFCURVE",
"398 245 CURVE",
"412 205 OFFCURVE",
"423 164 OFFCURVE",
"438 125 CURVE",
"439 123 OFFCURVE",
"439 121 OFFCURVE",
"440 120 CURVE",
"444 107 OFFCURVE",
"444 107 OFFCURVE",
"434 99 CURVE",
"424 91 OFFCURVE",
"423 91 OFFCURVE",
"420 102 CURVE",
"417 116 OFFCURVE",
"410 129 OFFCURVE",
"406 143 CURVE",
"403 151 OFFCURVE",
"402 158 OFFCURVE",
"401 166 CURVE",
"401 172 OFFCURVE",
"393 178 OFFCURVE",
"391 186 CURVE",
"386 210 OFFCURVE",
"376 233 OFFCURVE",
"369 256 CURVE",
"363 273 OFFCURVE",
"357 290 OFFCURVE",
"352 306 CURVE",
"350 314 OFFCURVE",
"346 318 OFFCURVE",
"337 318 CURVE",
"314 319 OFFCURVE",
"292 317 OFFCURVE",
"269 317 CURVE",
"228 315 OFFCURVE",
"186 316 OFFCURVE",
"145 315 CURVE",
"138 315 OFFCURVE",
"130 314 OFFCURVE",
"123 313 CURVE",
"108 312 OFFCURVE",
"96 308 OFFCURVE",
"91 291 CURVE",
"89 285 OFFCURVE",
"84 277 OFFCURVE",
"73 280 CURVE",
"65 283 OFFCURVE",
"64 285 OFFCURVE",
"69 292 CURVE",
"72 297 OFFCURVE",
"77 300 OFFCURVE",
"77 306 CURVE"
);
}
);
width = 448;
}
);
unicode = 00C5;
},
{
glyphname = AE;
lastChange = "2020-05-30 07:47:09 +0000";
layers = (
{
layerId = "489FF050-567D-4B2A-9DE5-E24268F9D2E9";
paths = (
{
closed = 1;
nodes = (
"203 587 OFFCURVE",
"195 565 OFFCURVE",
"188 542 CURVE",
"186 536 OFFCURVE",
"185 530 OFFCURVE",
"182 523 CURVE",
"170 498 OFFCURVE",
"160 472 OFFCURVE",
"153 445 CURVE",
"143 406 OFFCURVE",
"130 367 OFFCURVE",
"118 328 CURVE",
"116 322 OFFCURVE",
"117 319 OFFCURVE",
"124 317 CURVE",
"127 317 OFFCURVE",
"130 317 OFFCURVE",
"133 317 CURVE",
"166 318 OFFCURVE",
"197 309 OFFCURVE",
"228 303 CURVE",
"264 295 OFFCURVE",
"301 291 OFFCURVE",
"338 290 CURVE",
"350 289 OFFCURVE",
"352 293 OFFCURVE",
"346 305 CURVE",
"338 324 OFFCURVE",
"329 342 OFFCURVE",
"320 361 CURVE",
"308 390 OFFCURVE",
"296 419 OFFCURVE",
"284 448 CURVE",
"265 491 OFFCURVE",
"245 534 OFFCURVE",
"225 577 CURVE",
"220 587 OFFCURVE",
"222 599 OFFCURVE",
"211 610 CURVE"
);
},
{
closed = 1;
nodes = (
"450 290 OFFCURVE",
"473 290 OFFCURVE",
"497 297 CURVE",
"500 297 OFFCURVE",
"503 298 OFFCURVE",
"505 296 CURVE",
"509 292 OFFCURVE",
"506 289 OFFCURVE",
"504 286 CURVE",
"499 271 OFFCURVE",
"489 264 OFFCURVE",
"472 264 CURVE",
"452 265 OFFCURVE",
"431 262 OFFCURVE",
"411 260 CURVE",
"400 259 OFFCURVE",
"398 256 OFFCURVE",
"403 246 CURVE",
"413 228 OFFCURVE",
"424 212 OFFCURVE",
"433 194 CURVE",
"442 176 OFFCURVE",
"451 157 OFFCURVE",
"460 139 CURVE",
"471 117 OFFCURVE",
"480 94 OFFCURVE",
"492 72 CURVE",
"503 53 OFFCURVE",
"518 40 OFFCURVE",
"542 39 CURVE",
"568 38 OFFCURVE",
"593 36 OFFCURVE",
"618 31 CURVE",
"637 27 OFFCURVE",
"657 29 OFFCURVE",
"676 28 CURVE",
"684 27 OFFCURVE",
"692 26 OFFCURVE",
"700 25 CURVE",
"702 25 OFFCURVE",
"705 24 OFFCURVE",
"706 21 CURVE",
"706 18 OFFCURVE",
"704 16 OFFCURVE",
"703 15 CURVE",
"701 13 OFFCURVE",
"699 11 OFFCURVE",
"697 11 CURVE",
"681 8 OFFCURVE",
"666 5 OFFCURVE",
"651 4 CURVE",
"635 3 OFFCURVE",
"618 5 OFFCURVE",
"602 6 CURVE",
"593 6 OFFCURVE",
"585 7 OFFCURVE",
"577 11 CURVE",
"574 13 OFFCURVE",
"570 14 OFFCURVE",
"566 14 CURVE",
"544 13 OFFCURVE",
"524 24 OFFCURVE",
"502 21 CURVE",
"499 20 OFFCURVE",
"496 21 OFFCURVE",
"495 23 CURVE",
"485 34 OFFCURVE",
"469 40 OFFCURVE",
"468 58 CURVE",
"467 67 OFFCURVE",
"459 73 OFFCURVE",
"455 81 CURVE",
"447 97 OFFCURVE",
"438 112 OFFCURVE",
"432 128 CURVE",
"416 167 OFFCURVE",
"391 201 OFFCURVE",
"376 239 CURVE",
"370 255 OFFCURVE",
"362 262 OFFCURVE",
"343 262 CURVE",
"295 261 OFFCURVE",
"247 269 OFFCURVE",
"199 280 CURVE",
"173 287 OFFCURVE",
"146 287 OFFCURVE",
"120 291 CURVE",
"111 292 OFFCURVE",
"106 288 OFFCURVE",
"104 279 CURVE",
"97 250 OFFCURVE",
"84 222 OFFCURVE",
"77 193 CURVE",
"72 174 OFFCURVE",
"62 156 OFFCURVE",
"56 137 CURVE",
"48 111 OFFCURVE",
"39 86 OFFCURVE",
"31 61 CURVE",
"29 55 OFFCURVE",
"29 48 OFFCURVE",
"23 45 CURVE",
"18 44 OFFCURVE",
"12 38 OFFCURVE",
"7 42 CURVE",
"2 46 OFFCURVE",
"6 52 OFFCURVE",
"7 57 CURVE",
"21 105 OFFCURVE",
"40 152 OFFCURVE",
"55 200 CURVE",
"70 245 OFFCURVE",
"88 289 OFFCURVE",
"95 335 CURVE",
"110 364 OFFCURVE",
"114 397 OFFCURVE",
"125 427 CURVE",
"139 464 OFFCURVE",
"148 502 OFFCURVE",
"162 539 CURVE",
"177 576 OFFCURVE",
"183 614 OFFCURVE",
"186 653 CURVE",
"186 658 OFFCURVE",
"185 663 OFFCURVE",
"186 668 CURVE",
"186 677 OFFCURVE",
"192 682 OFFCURVE",
"200 681 CURVE",
"209 681 OFFCURVE",
"212 676 OFFCURVE",
"210 667 CURVE",
"209 660 OFFCURVE",
"210 657 OFFCURVE",
"218 656 CURVE",
"229 655 OFFCURVE",
"230 645 OFFCURVE",
"230 638 CURVE",
"231 615 OFFCURVE",
"244 597 OFFCURVE",
"253 577 CURVE",
"262 556 OFFCURVE",
"274 537 OFFCURVE",
"283 516 CURVE",
"292 493 OFFCURVE",
"302 471 OFFCURVE",
"312 448 CURVE",
"324 421 OFFCURVE",
"332 393 OFFCURVE",
"350 368 CURVE",
"357 357 OFFCURVE",
"358 343 OFFCURVE",
"364 330 CURVE",
"370 318 OFFCURVE",
"378 308 OFFCURVE",
"382 295 CURVE",
"383 289 OFFCURVE",
"388 287 OFFCURVE",
"394 287 CURVE",
"405 288 OFFCURVE",
"416 288 OFFCURVE",
"425 288 CURVE"
);
},
{
closed = 1;
nodes = (
"620 661 OFFCURVE",
"580 667 OFFCURVE",
"542 660 CURVE",
"493 650 OFFCURVE",
"445 657 OFFCURVE",
"397 661 CURVE",
"344 666 OFFCURVE",
"290 668 OFFCURVE",
"237 675 CURVE",
"229 676 OFFCURVE",
"224 678 OFFCURVE",
"223 687 CURVE",
"222 695 OFFCURVE",
"228 703 OFFCURVE",
"236 704 CURVE",
"240 705 OFFCURVE",
"245 705 OFFCURVE",
"249 704 CURVE",
"284 696 OFFCURVE",
"321 696 OFFCURVE",
"357 693 CURVE",
"384 691 OFFCURVE",
"412 689 OFFCURVE",
"440 685 CURVE",
"477 681 OFFCURVE",
"514 682 OFFCURVE",
"552 687 CURVE",
"591 692 OFFCURVE",
"631 691 OFFCURVE",
"671 691 CURVE",
"675 690 OFFCURVE",
"680 691 OFFCURVE",
"682 686 CURVE",
"684 681 OFFCURVE",
"681 678 OFFCURVE",
"677 675 CURVE",
"675 673 OFFCURVE",
"673 671 OFFCURVE",
"671 668 CURVE",
"666 660 OFFCURVE",
"666 661 OFFCURVE",
"659 661 CURVE"
);
}
);
width = 709;
}
);
unicode = 00C6;
},
{
glyphname = B;
lastChange = "2020-05-30 07:47:18 +0000";
layers = (
{
layerId = "489FF050-567D-4B2A-9DE5-E24268F9D2E9";
paths = (
{
closed = 1;
nodes = (
"85 388 OFFCURVE",
"104 387 OFFCURVE",
"123 384 CURVE",
"125 384 OFFCURVE",
"128 384 OFFCURVE",
"130 385 CURVE",
"149 391 OFFCURVE",
"169 391 OFFCURVE",
"189 393 CURVE",
"212 395 OFFCURVE",
"233 403 OFFCURVE",
"249 420 CURVE",
"259 432 OFFCURVE",
"268 444 OFFCURVE",
"278 456 CURVE",
"285 464 OFFCURVE",
"288 474 OFFCURVE",
"287 486 CURVE",
"287 508 OFFCURVE",
"285 530 OFFCURVE",
"281 551 CURVE",
"272 601 OFFCURVE",
"251 642 OFFCURVE",
"207 670 CURVE",
"189 682 OFFCURVE",
"171 695 OFFCURVE",
"149 702 CURVE",
"121 711 OFFCURVE",
"94 712 OFFCURVE",
"70 690 CURVE",
"68 687 OFFCURVE",
"64 685 OFFCURVE",
"61 683 CURVE",
"52 678 OFFCURVE",
"49 671 OFFCURVE",
"50 660 CURVE",
"51 631 OFFCURVE",
"57 603 OFFCURVE",
"58 574 CURVE",
"59 516 OFFCURVE",
"62 458 OFFCURVE",
"64 400 CURVE",
"64 396 OFFCURVE",
"64 392 OFFCURVE",
"67 388 CURVE"
);
},
{
closed = 1;
nodes = (
"67 231 OFFCURVE",
"75 210 OFFCURVE",
"76 188 CURVE",
"77 168 OFFCURVE",
"82 150 OFFCURVE",
"81 130 CURVE",
"81 127 OFFCURVE",
"83 124 OFFCURVE",
"83 121 CURVE",
"86 106 OFFCURVE",
"88 92 OFFCURVE",
"91 78 CURVE",
"92 69 OFFCURVE",
"95 68 OFFCURVE",
"103 68 CURVE",
"118 68 OFFCURVE",
"133 73 OFFCURVE",
"148 72 CURVE",
"175 68 OFFCURVE",
"202 69 OFFCURVE",
"229 67 CURVE",
"260 65 OFFCURVE",
"290 68 OFFCURVE",
"321 78 CURVE",
"347 87 OFFCURVE",
"359 104 OFFCURVE",
"369 126 CURVE",
"373 135 OFFCURVE",
"375 144 OFFCURVE",
"377 153 CURVE",
"381 175 OFFCURVE",
"382 196 OFFCURVE",
"374 217 CURVE",
"364 242 OFFCURVE",
"354 266 OFFCURVE",
"339 288 CURVE",
"335 293 OFFCURVE",
"331 298 OFFCURVE",
"325 301 CURVE",
"317 306 OFFCURVE",
"311 313 OFFCURVE",
"305 321 CURVE",
"291 337 OFFCURVE",
"275 351 OFFCURVE",
"259 363 CURVE",
"243 374 OFFCURVE",
"226 379 OFFCURVE",
"207 372 CURVE",
"191 366 OFFCURVE",
"173 364 OFFCURVE",
"157 356 CURVE",
"153 354 OFFCURVE",
"148 354 OFFCURVE",
"143 356 CURVE",
"130 361 OFFCURVE",
"117 360 OFFCURVE",
"104 357 CURVE",
"95 356 OFFCURVE",
"86 352 OFFCURVE",
"76 352 CURVE",
"67 353 OFFCURVE",
"67 349 OFFCURVE",
"67 341 CURVE",
"66 312 OFFCURVE",
"73 283 OFFCURVE",
"70 253 CURVE"
);
},
{
closed = 1;
nodes = (
"215 43 OFFCURVE",
"202 43 OFFCURVE",
"189 43 CURVE",
"186 43 OFFCURVE",
"182 43 OFFCURVE",
"179 44 CURVE",
"154 52 OFFCURVE",
"129 45 OFFCURVE",
"103 46 CURVE",
"96 47 OFFCURVE",
"93 42 OFFCURVE",
"94 36 CURVE",
"95 28 OFFCURVE",
"96 20 OFFCURVE",
"97 12 CURVE",
"98 3 OFFCURVE",
"96 1 OFFCURVE",
"84 -2 CURVE",
"77 -4 OFFCURVE",
"72 -1 OFFCURVE",
"70 6 CURVE",
"68 13 OFFCURVE",
"67 21 OFFCURVE",
"66 29 CURVE",
"66 37 OFFCURVE",
"64 43 OFFCURVE",
"57 48 CURVE",
"49 54 OFFCURVE",
"50 57 OFFCURVE",
"57 64 CURVE",
"61 67 OFFCURVE",
"63 69 OFFCURVE",
"62 73 CURVE",
"60 84 OFFCURVE",
"61 95 OFFCURVE",
"59 105 CURVE",
"55 128 OFFCURVE",
"51 151 OFFCURVE",
"51 174 CURVE",
"51 190 OFFCURVE",
"46 204 OFFCURVE",
"45 220 CURVE",
"42 245 OFFCURVE",
"44 270 OFFCURVE",
"42 296 CURVE",
"40 318 OFFCURVE",
"37 340 OFFCURVE",
"38 362 CURVE",
"38 402 OFFCURVE",
"34 442 OFFCURVE",
"34 482 CURVE",
"33 530 OFFCURVE",
"30 578 OFFCURVE",
"25 626 CURVE",
"24 631 OFFCURVE",
"24 636 OFFCURVE",
"23 641 CURVE",
"22 648 OFFCURVE",
"21 654 OFFCURVE",
"14 658 CURVE",
"6 663 OFFCURVE",
"5 670 OFFCURVE",
"11 677 CURVE",
"18 684 OFFCURVE",
"23 693 OFFCURVE",
"35 697 CURVE",
"47 701 OFFCURVE",
"58 711 OFFCURVE",
"68 719 CURVE",
"85 732 OFFCURVE",
"104 733 OFFCURVE",
"123 732 CURVE",
"150 730 OFFCURVE",
"175 721 OFFCURVE",
"198 706 CURVE",
"203 703 OFFCURVE",
"208 701 OFFCURVE",
"213 698 CURVE",
"258 673 OFFCURVE",
"284 634 OFFCURVE",
"299 586 CURVE",
"309 555 OFFCURVE",
"312 524 OFFCURVE",
"315 493 CURVE",
"316 475 OFFCURVE",
"313 457 OFFCURVE",
"301 442 CURVE",
"290 428 OFFCURVE",
"279 416 OFFCURVE",
"267 404 CURVE",
"260 396 OFFCURVE",
"260 393 OFFCURVE",
"268 388 CURVE",
"287 378 OFFCURVE",
"300 361 OFFCURVE",
"314 346 CURVE",
"317 343 OFFCURVE",
"320 339 OFFCURVE",
"324 336 CURVE",
"341 325 OFFCURVE",
"354 310 OFFCURVE",
"366 293 CURVE",
"371 286 OFFCURVE",
"376 279 OFFCURVE",
"379 271 CURVE",
"389 248 OFFCURVE",
"400 225 OFFCURVE",
"406 200 CURVE",
"407 196 OFFCURVE",
"408 192 OFFCURVE",
"407 187 CURVE",
"405 172 OFFCURVE",
"403 157 OFFCURVE",
"400 142 CURVE",
"395 115 OFFCURVE",
"380 93 OFFCURVE",
"363 73 CURVE",
"358 67 OFFCURVE",
"351 64 OFFCURVE",
"343 64 CURVE",
"334 63 OFFCURVE",
"325 61 OFFCURVE",
"317 56 CURVE",
"296 45 OFFCURVE",
"274 40 OFFCURVE",
"250 43 CURVE",
"243 44 OFFCURVE",
"236 44 OFFCURVE",
"228 45 CURVE",
"228 44 OFFCURVE",
"228 44 OFFCURVE",
"228 43 CURVE"
);
}
);
width = 410;
}
);
unicode = 0042;
},
{
glyphname = C;
lastChange = "2020-05-30 07:47:31 +0000";
layers = (
{
layerId = "489FF050-567D-4B2A-9DE5-E24268F9D2E9";
paths = (
{
closed = 1;
nodes = (
"233 5 OFFCURVE",
"212 11 OFFCURVE",
"192 19 CURVE",
"165 28 OFFCURVE",
"137 36 OFFCURVE",
"111 49 CURVE",
"105 52 OFFCURVE",
"100 56 OFFCURVE",
"96 61 CURVE",
"84 77 OFFCURVE",
"71 94 OFFCURVE",
"58 110 CURVE",
"58 110 OFFCURVE",
"57 111 OFFCURVE",
"57 111 CURVE",
"53 125 OFFCURVE",
"43 137 OFFCURVE",
"40 149 CURVE",
"35 164 OFFCURVE",
"29 176 OFFCURVE",
"21 188 CURVE",
"20 190 OFFCURVE",
"18 193 OFFCURVE",
"18 196 CURVE",
"19 204 OFFCURVE",
"14 211 OFFCURVE",
"13 218 CURVE",
"12 238 OFFCURVE",
"8 257 OFFCURVE",
"6 277 CURVE",
"4 296 OFFCURVE",
"1 316 OFFCURVE",
"3 336 CURVE",
"5 368 OFFCURVE",
"7 401 OFFCURVE",
"17 432 CURVE",
"21 445 OFFCURVE",
"25 457 OFFCURVE",
"26 470 CURVE",
"26 475 OFFCURVE",
"27 479 OFFCURVE",
"29 483 CURVE",
"41 506 OFFCURVE",
"51 528 OFFCURVE",
"60 551 CURVE",
"67 569 OFFCURVE",
"80 583 OFFCURVE",
"94 595 CURVE",
"104 604 OFFCURVE",
"113 613 OFFCURVE",
"122 622 CURVE",
"153 650 OFFCURVE",
"186 673 OFFCURVE",
"228 683 CURVE",
"255 689 OFFCURVE",
"282 695 OFFCURVE",
"309 702 CURVE",
"314 703 OFFCURVE",
"319 703 OFFCURVE",
"324 704 CURVE",
"329 704 OFFCURVE",
"333 703 OFFCURVE",
"335 697 CURVE",
"336 693 OFFCURVE",
"333 690 OFFCURVE",
"330 687 CURVE",
"323 682 OFFCURVE",
"315 679 OFFCURVE",
"307 678 CURVE",
"276 674 OFFCURVE",
"245 666 OFFCURVE",
"216 657 CURVE",
"182 646 OFFCURVE",
"157 623 OFFCURVE",
"130 600 CURVE",
"103 578 OFFCURVE",
"86 549 OFFCURVE",
"71 517 CURVE",
"48 469 OFFCURVE",
"35 420 OFFCURVE",
"29 368 CURVE",
"26 338 OFFCURVE",
"27 309 OFFCURVE",
"31 279 CURVE",
"34 257 OFFCURVE",
"37 235 OFFCURVE",
"40 213 CURVE",
"41 205 OFFCURVE",
"47 198 OFFCURVE",
"49 191 CURVE",
"61 150 OFFCURVE",
"85 116 OFFCURVE",
"110 82 CURVE",
"123 65 OFFCURVE",
"143 58 OFFCURVE",
"163 51 CURVE",
"180 44 OFFCURVE",
"197 39 OFFCURVE",
"214 33 CURVE",
"239 24 OFFCURVE",
"263 27 OFFCURVE",
"288 30 CURVE",
"310 33 OFFCURVE",
"330 41 OFFCURVE",
"350 51 CURVE",
"361 56 OFFCURVE",
"372 60 OFFCURVE",
"384 61 CURVE",
"397 62 OFFCURVE",
"409 65 OFFCURVE",
"417 76 CURVE",
"419 78 OFFCURVE",
"422 81 OFFCURVE",
"426 78 CURVE",
"429 77 OFFCURVE",
"428 74 OFFCURVE",
"428 71 CURVE",
"428 64 OFFCURVE",
"426 59 OFFCURVE",
"420 55 CURVE",
"402 44 OFFCURVE",
"382 36 OFFCURVE",
"362 28 CURVE",
"353 25 OFFCURVE",
"344 21 OFFCURVE",
"335 18 CURVE",
"309 10 OFFCURVE",
"282 8 OFFCURVE",
"250 8 CURVE"
);
}
);
width = 432;
}
);
unicode = 0043;
},
{
glyphname = D;
lastChange = "2020-05-30 07:48:43 +0000";
layers = (
{
layerId = "489FF050-567D-4B2A-9DE5-E24268F9D2E9";
paths = (
{
closed = 1;
nodes = (
"407 436 OFFCURVE",
"396 479 OFFCURVE",
"381 522 CURVE",
"376 538 OFFCURVE",
"371 553 OFFCURVE",
"362 567 CURVE",
"345 597 OFFCURVE",
"322 622 OFFCURVE",
"298 646 CURVE",
"265 678 OFFCURVE",
"225 694 OFFCURVE",
"179 695 CURVE",
"135 696 OFFCURVE",
"91 690 OFFCURVE",
"47 687 CURVE",
"40 686 OFFCURVE",
"38 684 OFFCURVE",
"38 678 CURVE",
"36 661 OFFCURVE",
"35 644 OFFCURVE",
"35 627 CURVE",
"37 599 OFFCURVE",
"38 572 OFFCURVE",
"37 544 CURVE",
"36 515 OFFCURVE",
"35 486 OFFCURVE",
"37 458 CURVE",
"40 419 OFFCURVE",
"42 380 OFFCURVE",
"45 341 CURVE",
"48 303 OFFCURVE",
"54 265 OFFCURVE",
"58 227 CURVE",
"62 192 OFFCURVE",
"65 157 OFFCURVE",
"67 122 CURVE",
"67 105 OFFCURVE",
"69 88 OFFCURVE",
"70 70 CURVE",
"71 62 OFFCURVE",
"71 54 OFFCURVE",
"72 46 CURVE",
"72 40 OFFCURVE",
"76 37 OFFCURVE",
"83 36 CURVE",
"94 36 OFFCURVE",
"105 35 OFFCURVE",
"117 34 CURVE",
"151 32 OFFCURVE",
"184 33 OFFCURVE",
"217 44 CURVE",
"230 48 OFFCURVE",
"242 55 OFFCURVE",
"254 61 CURVE",
"292 80 OFFCURVE",
"325 105 OFFCURVE",
"348 141 CURVE",
"357 157 OFFCURVE",
"365 174 OFFCURVE",
"371 192 CURVE",
"378 212 OFFCURVE",
"388 232 OFFCURVE",
"391 253 CURVE",
"398 298 OFFCURVE",
"403 344 OFFCURVE",
"405 389 CURVE"
);
},
{
closed = 1;
nodes = (
"33 44 OFFCURVE",
"35 40 OFFCURVE",
"38 39 CURVE",
"44 38 OFFCURVE",
"47 40 OFFCURVE",
"46 47 CURVE",
"36 88 OFFCURVE",
"42 131 OFFCURVE",
"37 173 CURVE",
"33 205 OFFCURVE",
"28 236 OFFCURVE",
"25 268 CURVE",
"20 314 OFFCURVE",
"13 360 OFFCURVE",
"11 407 CURVE",
"10 440 OFFCURVE",
"10 472 OFFCURVE",
"9 504 CURVE",
"6 542 OFFCURVE",
"8 580 OFFCURVE",
"7 618 CURVE",
"7 637 OFFCURVE",
"8 656 OFFCURVE",
"8 675 CURVE",
"8 685 OFFCURVE",
"5 694 OFFCURVE",
"6 704 CURVE",
"6 710 OFFCURVE",
"8 713 OFFCURVE",
"15 713 CURVE",
"64 713 OFFCURVE",
"113 721 OFFCURVE",
"162 722 CURVE",
"212 724 OFFCURVE",
"259 709 OFFCURVE",
"301 680 CURVE",
"319 668 OFFCURVE",
"334 650 OFFCURVE",
"348 632 CURVE",
"366 610 OFFCURVE",
"383 588 OFFCURVE",
"395 562 CURVE",
"412 528 OFFCURVE",
"422 492 OFFCURVE",
"429 454 CURVE",
"439 402 OFFCURVE",
"431 351 OFFCURVE",
"426 299 CURVE",
"425 295 OFFCURVE",
"424 291 OFFCURVE",
"424 287 CURVE",
"426 271 OFFCURVE",
"420 256 OFFCURVE",
"416 241 CURVE",
"406 201 OFFCURVE",
"394 163 OFFCURVE",
"372 128 CURVE",
"359 108 OFFCURVE",
"340 93 OFFCURVE",
"322 78 CURVE",
"304 62 OFFCURVE",
"285 51 OFFCURVE",
"263 43 CURVE",
"253 39 OFFCURVE",
"243 33 OFFCURVE",
"233 28 CURVE",
"215 18 OFFCURVE",
"193 16 OFFCURVE",
"173 14 CURVE",
"145 12 OFFCURVE",
"117 15 OFFCURVE",
"90 18 CURVE",
"75 20 OFFCURVE",
"73 18 OFFCURVE",
"77 3 CURVE",
"78 -2 OFFCURVE",
"82 -7 OFFCURVE",
"77 -10 CURVE",
"72 -13 OFFCURVE",
"65 -15 OFFCURVE",
"59 -17 CURVE",
"56 -17 OFFCURVE",
"54 -14 OFFCURVE",
"53 -11 CURVE",
"52 -4 OFFCURVE",
"50 2 OFFCURVE",
"49 9 CURVE",
"46 18 OFFCURVE",
"46 28 OFFCURVE",
"33 31 CURVE",
"29 32 OFFCURVE",
"27 37 OFFCURVE",
"29 42 CURVE"
);
}
);
width = 436;
}
);
unicode = 0044;
},
{
glyphname = E;
lastChange = "2020-05-30 07:48:56 +0000";
layers = (
{
layerId = "489FF050-567D-4B2A-9DE5-E24268F9D2E9";
paths = (
{
closed = 1;
nodes = (
"61 352 OFFCURVE",
"72 348 OFFCURVE",
"82 346 CURVE",
"127 341 OFFCURVE",
"172 336 OFFCURVE",
"218 340 CURVE",
"226 341 OFFCURVE",
"233 340 OFFCURVE",
"241 336 CURVE",
"248 332 OFFCURVE",
"254 320 OFFCURVE",
"253 312 CURVE",
"253 308 OFFCURVE",
"250 306 OFFCURVE",
"246 307 CURVE",
"219 317 OFFCURVE",
"191 313 OFFCURVE",
"164 312 CURVE",
"147 311 OFFCURVE",
"130 316 OFFCURVE",
"113 317 CURVE",
"102 318 OFFCURVE",
"91 320 OFFCURVE",
"79 320 CURVE",
"69 319 OFFCURVE",
"61 323 OFFCURVE",
"50 327 CURVE",
"49 314 OFFCURVE",
"49 303 OFFCURVE",
"49 292 CURVE",
"49 272 OFFCURVE",
"51 252 OFFCURVE",
"49 231 CURVE",
"48 223 OFFCURVE",
"52 214 OFFCURVE",
"50 206 CURVE",
"46 188 OFFCURVE",
"49 169 OFFCURVE",
"47 151 CURVE",
"46 144 OFFCURVE",
"45 137 OFFCURVE",
"47 131 CURVE",
"50 121 OFFCURVE",
"49 111 OFFCURVE",
"46 101 CURVE",
"43 93 OFFCURVE",
"43 85 OFFCURVE",
"45 76 CURVE",
"47 66 OFFCURVE",
"45 56 OFFCURVE",
"44 46 CURVE",
"43 31 OFFCURVE",
"44 29 OFFCURVE",
"58 31 CURVE",
"101 36 OFFCURVE",
"144 35 OFFCURVE",
"186 44 CURVE",
"212 49 OFFCURVE",
"237 55 OFFCURVE",
"261 65 CURVE",
"277 71 OFFCURVE",
"294 73 OFFCURVE",
"310 80 CURVE",
"315 82 OFFCURVE",
"319 78 OFFCURVE",
"318 73 CURVE",
"317 58 OFFCURVE",
"312 51 OFFCURVE",
"297 48 CURVE",
"281 45 OFFCURVE",
"266 40 OFFCURVE",
"250 34 CURVE",
"212 21 OFFCURVE",
"172 14 OFFCURVE",
"131 10 CURVE",
"107 8 OFFCURVE",
"84 7 OFFCURVE",
"60 5 CURVE",
"51 5 OFFCURVE",
"48 1 OFFCURVE",
"48 -7 CURVE",
"48 -11 OFFCURVE",
"47 -15 OFFCURVE",
"47 -19 CURVE",
"48 -29 OFFCURVE",
"39 -30 OFFCURVE",
"33 -34 CURVE",
"29 -36 OFFCURVE",
"27 -31 OFFCURVE",
"26 -27 CURVE",
"25 -19 OFFCURVE",
"24 -12 OFFCURVE",
"24 -5 CURVE",
"23 1 OFFCURVE",
"21 5 OFFCURVE",
"14 8 CURVE",
"4 11 OFFCURVE",
"2 18 OFFCURVE",
"10 24 CURVE",
"21 32 OFFCURVE",
"21 43 OFFCURVE",
"21 54 CURVE",
"22 93 OFFCURVE",
"20 133 OFFCURVE",
"24 172 CURVE",
"27 206 OFFCURVE",
"25 240 OFFCURVE",
"25 273 CURVE",
"26 313 OFFCURVE",
"22 353 OFFCURVE",
"20 393 CURVE",
"19 430 OFFCURVE",
"20 466 OFFCURVE",
"21 502 CURVE",
"22 521 OFFCURVE",
"21 539 OFFCURVE",
"20 558 CURVE",
"18 585 OFFCURVE",
"14 613 OFFCURVE",
"15 641 CURVE",
"16 654 OFFCURVE",
"18 667 OFFCURVE",
"20 680 CURVE",
"21 689 OFFCURVE",
"33 693 OFFCURVE",
"39 686 CURVE",
"46 675 OFFCURVE",
"54 678 OFFCURVE",
"62 681 CURVE",
"97 689 OFFCURVE",
"132 696 OFFCURVE",
"167 700 CURVE",
"194 703 OFFCURVE",
"221 707 OFFCURVE",
"248 711 CURVE",
"263 713 OFFCURVE",
"276 709 OFFCURVE",
"287 700 CURVE",
"291 697 OFFCURVE",
"294 694 OFFCURVE",
"294 689 CURVE",
"294 681 OFFCURVE",
"291 677 OFFCURVE",
"284 680 CURVE",
"263 688 OFFCURVE",
"242 683 OFFCURVE",
"220 680 CURVE",
"187 676 OFFCURVE",
"153 672 OFFCURVE",
"120 667 CURVE",
"95 664 OFFCURVE",
"72 656 OFFCURVE",
"49 650 CURVE",
"41 648 OFFCURVE",
"39 643 OFFCURVE",
"39 636 CURVE",
"40 615 OFFCURVE",
"40 593 OFFCURVE",
"41 572 CURVE",
"42 549 OFFCURVE",
"44 526 OFFCURVE",
"44 503 CURVE",
"44 462 OFFCURVE",
"40 420 OFFCURVE",
"44 379 CURVE",
"45 371 OFFCURVE",
"44 363 OFFCURVE",
"45 356 CURVE",
"45 352 OFFCURVE",
"48 348 OFFCURVE",
"51 343 CURVE"
);
}
);
width = 320;
}
);
unicode = 0045;
},
{
glyphname = F;
lastChange = "2020-05-30 07:49:10 +0000";
layers = (
{
layerId = "489FF050-567D-4B2A-9DE5-E24268F9D2E9";
paths = (
{
closed = 1;
nodes = (
"180 289 OFFCURVE",
"170 284 OFFCURVE",
"156 281 CURVE",
"126 276 OFFCURVE",
"96 278 OFFCURVE",
"65 283 CURVE",
"62 284 OFFCURVE",
"59 285 OFFCURVE",
"55 285 CURVE",
"45 286 OFFCURVE",
"42 284 OFFCURVE",
"41 274 CURVE",
"39 233 OFFCURVE",
"33 193 OFFCURVE",
"31 152 CURVE",
"31 133 OFFCURVE",
"29 114 OFFCURVE",
"32 96 CURVE",
"37 65 OFFCURVE",
"35 33 OFFCURVE",
"41 2 CURVE",
"42 0 OFFCURVE",
"43 -3 OFFCURVE",
"39 -5 CURVE",
"37 -5 OFFCURVE",
"35 -4 OFFCURVE",
"34 -2 CURVE",
"29 5 OFFCURVE",
"23 11 OFFCURVE",
"21 20 CURVE",
"19 34 OFFCURVE",
"15 46 OFFCURVE",
"11 59 CURVE",
"9 63 OFFCURVE",
"9 67 OFFCURVE",
"9 71 CURVE",
"9 77 OFFCURVE",
"9 83 OFFCURVE",
"8 89 CURVE",
"2 116 OFFCURVE",
"4 142 OFFCURVE",
"8 168 CURVE",
"8 170 OFFCURVE",
"8 171 OFFCURVE",
"8 173 CURVE",
"6 204 OFFCURVE",
"11 234 OFFCURVE",
"13 264 CURVE",
"16 305 OFFCURVE",
"17 345 OFFCURVE",
"27 385 CURVE",
"29 391 OFFCURVE",
"30 397 OFFCURVE",
"30 404 CURVE",
"29 459 OFFCURVE",
"35 513 OFFCURVE",
"34 568 CURVE",
"34 596 OFFCURVE",
"32 625 OFFCURVE",
"36 653 CURVE",
"37 661 OFFCURVE",
"38 670 OFFCURVE",
"39 678 CURVE",
"40 686 OFFCURVE",
"45 690 OFFCURVE",
"53 691 CURVE",
"87 692 OFFCURVE",
"120 700 OFFCURVE",
"154 701 CURVE",
"190 703 OFFCURVE",
"227 704 OFFCURVE",
"263 693 CURVE",
"268 691 OFFCURVE",
"273 691 OFFCURVE",
"278 690 CURVE",
"285 688 OFFCURVE",
"292 685 OFFCURVE",
"297 680 CURVE",
"302 676 OFFCURVE",
"302 671 OFFCURVE",
"300 666 CURVE",
"298 660 OFFCURVE",
"293 663 OFFCURVE",
"289 664 CURVE",
"245 672 OFFCURVE",
"201 679 OFFCURVE",
"156 675 CURVE",
"127 672 OFFCURVE",
"99 669 OFFCURVE",
"70 666 CURVE",
"66 665 OFFCURVE",
"64 664 OFFCURVE",
"63 660 CURVE",
"62 657 OFFCURVE",
"59 654 OFFCURVE",
"59 651 CURVE",
"61 627 OFFCURVE",
"56 604 OFFCURVE",
"59 581 CURVE",
"60 572 OFFCURVE",
"60 562 OFFCURVE",
"59 553 CURVE",
"59 511 OFFCURVE",
"58 470 OFFCURVE",
"56 429 CURVE",
"54 396 OFFCURVE",
"51 363 OFFCURVE",
"46 330 CURVE",
"43 313 OFFCURVE",
"45 310 OFFCURVE",
"63 308 CURVE",
"82 306 OFFCURVE",
"101 306 OFFCURVE",
"120 305 CURVE",
"125 305 OFFCURVE",
"131 306 OFFCURVE",
"136 305 CURVE",
"147 301 OFFCURVE",
"158 303 OFFCURVE",
"169 306 CURVE",
"172 307 OFFCURVE",
"175 309 OFFCURVE",
"179 306 CURVE"
);
}
);
width = 306;
}
);
unicode = 0046;
},
{
glyphname = G;
lastChange = "2020-05-30 07:55:41 +0000";
layers = (
{
layerId = "489FF050-567D-4B2A-9DE5-E24268F9D2E9";
paths = (
{
closed = 1;
nodes = (
"5 298 OFFCURVE",
"14 346 OFFCURVE",
"23 394 CURVE",
"26 408 OFFCURVE",
"28 423 OFFCURVE",
"31 437 CURVE",
"36 466 OFFCURVE",
"44 493 OFFCURVE",
"53 521 CURVE",
"54 524 OFFCURVE",
"56 527 OFFCURVE",
"57 530 CURVE",
"68 547 OFFCURVE",
"78 563 OFFCURVE",
"86 581 CURVE",
"92 593 OFFCURVE",
"100 601 OFFCURVE",
"110 609 CURVE",
"130 625 OFFCURVE",
"149 641 OFFCURVE",
"167 658 CURVE",
"197 685 OFFCURVE",
"233 697 OFFCURVE",
"272 699 CURVE",
"303 701 OFFCURVE",
"333 702 OFFCURVE",
"364 696 CURVE",
"377 694 OFFCURVE",
"391 692 OFFCURVE",
"403 685 CURVE",
"420 676 OFFCURVE",
"440 668 OFFCURVE",
"455 654 CURVE",
"460 650 OFFCURVE",
"465 647 OFFCURVE",
"471 645 CURVE",
"476 643 OFFCURVE",
"478 640 OFFCURVE",
"478 634 CURVE",
"478 629 OFFCURVE",
"476 625 OFFCURVE",
"470 622 CURVE",
"461 618 OFFCURVE",
"457 619 OFFCURVE",
"450 628 CURVE",
"448 630 OFFCURVE",
"446 632 OFFCURVE",
"444 634 CURVE",
"413 653 OFFCURVE",
"382 673 OFFCURVE",
"343 674 CURVE",
"316 675 OFFCURVE",
"289 676 OFFCURVE",
"262 674 CURVE",
"236 671 OFFCURVE",
"213 662 OFFCURVE",
"192 645 CURVE",
"169 626 OFFCURVE",
"146 607 OFFCURVE",
"123 588 CURVE",
"116 582 OFFCURVE",
"111 575 OFFCURVE",
"106 567 CURVE",
"99 554 OFFCURVE",
"91 542 OFFCURVE",
"83 529 CURVE",
"72 510 OFFCURVE",
"64 488 OFFCURVE",
"59 466 CURVE",
"52 432 OFFCURVE",
"48 397 OFFCURVE",
"41 363 CURVE",
"38 345 OFFCURVE",
"34 328 OFFCURVE",
"31 310 CURVE",
"25 267 OFFCURVE",
"25 225 OFFCURVE",
"34 183 CURVE",
"39 159 OFFCURVE",
"46 135 OFFCURVE",
"59 114 CURVE",
"61 111 OFFCURVE",
"62 108 OFFCURVE",
"63 104 CURVE",
"65 99 OFFCURVE",
"66 92 OFFCURVE",
"70 87 CURVE",
"97 51 OFFCURVE",
"125 15 OFFCURVE",
"173 5 CURVE",
"191 1 OFFCURVE",
"209 -6 OFFCURVE",
"227 -10 CURVE",
"260 -16 OFFCURVE",
"291 -12 OFFCURVE",
"322 0 CURVE",
"351 12 OFFCURVE",
"368 35 OFFCURVE",
"377 63 CURVE",
"397 121 OFFCURVE",
"397 181 OFFCURVE",
"390 241 CURVE",
"389 249 OFFCURVE",
"383 253 OFFCURVE",
"377 255 CURVE",
"352 262 OFFCURVE",
"326 267 OFFCURVE",
"300 261 CURVE",
"288 258 OFFCURVE",
"276 261 OFFCURVE",
"266 267 CURVE",
"260 271 OFFCURVE",
"260 275 OFFCURVE",
"267 278 CURVE",
"276 282 OFFCURVE",
"285 284 OFFCURVE",
"295 285 CURVE",
"314 285 OFFCURVE",
"334 285 OFFCURVE",
"354 285 CURVE",
"359 285 OFFCURVE",
"363 285 OFFCURVE",
"367 283 CURVE",
"379 279 OFFCURVE",
"390 274 OFFCURVE",
"403 275 CURVE",
"410 275 OFFCURVE",
"414 272 OFFCURVE",
"415 263 CURVE",
"416 244 OFFCURVE",
"416 224 OFFCURVE",
"420 205 CURVE",
"425 181 OFFCURVE",
"423 157 OFFCURVE",
"420 133 CURVE",
"417 116 OFFCURVE",
"415 99 OFFCURVE",
"412 82 CURVE",
"410 68 OFFCURVE",
"404 55 OFFCURVE",
"396 43 CURVE",
"383 21 OFFCURVE",
"366 1 OFFCURVE",
"344 -13 CURVE",
"335 -20 OFFCURVE",
"324 -23 OFFCURVE",
"313 -26 CURVE",
"278 -37 OFFCURVE",
"241 -40 OFFCURVE",
"205 -29 CURVE",
"183 -22 OFFCURVE",
"161 -17 OFFCURVE",
"140 -10 CURVE",
"113 0 OFFCURVE",
"94 20 OFFCURVE",
"75 41 CURVE",
"57 61 OFFCURVE",
"48 88 OFFCURVE",
"36 112 CURVE",
"31 122 OFFCURVE",
"27 132 OFFCURVE",
"22 143 CURVE",
"8 177 OFFCURVE",
"8 213 OFFCURVE",
"5 246 CURVE"
);
}
);
width = 487;
}
);
unicode = 0047;
},
{
glyphname = H;
lastChange = "2020-05-30 07:55:56 +0000";
layers = (
{
layerId = "489FF050-567D-4B2A-9DE5-E24268F9D2E9";
paths = (
{
closed = 1;
nodes = (
"408 518 OFFCURVE",
"405 557 OFFCURVE",
"407 597 CURVE",
"407 615 OFFCURVE",
"409 632 OFFCURVE",
"410 650 CURVE",
"410 658 OFFCURVE",
"414 662 OFFCURVE",
"421 664 CURVE",
"431 666 OFFCURVE",
"437 662 OFFCURVE",
"436 652 CURVE",
"436 632 OFFCURVE",
"435 613 OFFCURVE",
"433 594 CURVE",
"431 566 OFFCURVE",
"435 537 OFFCURVE",
"434 509 CURVE",
"432 476 OFFCURVE",
"437 444 OFFCURVE",
"436 411 CURVE",
"435 390 OFFCURVE",
"437 369 OFFCURVE",
"435 348 CURVE",
"435 340 OFFCURVE",
"437 333 OFFCURVE",
"446 329 CURVE",
"450 328 OFFCURVE",
"453 325 OFFCURVE",
"455 321 CURVE",
"456 319 OFFCURVE",
"457 316 OFFCURVE",
"455 314 CURVE",
"454 312 OFFCURVE",
"451 312 OFFCURVE",
"449 313 CURVE",
"437 315 OFFCURVE",
"436 315 OFFCURVE",
"437 302 CURVE",
"437 289 OFFCURVE",
"435 276 OFFCURVE",
"440 264 CURVE",
"442 259 OFFCURVE",
"441 252 OFFCURVE",
"439 247 CURVE",
"435 237 OFFCURVE",
"435 228 OFFCURVE",
"438 218 CURVE",
"441 208 OFFCURVE",
"440 198 OFFCURVE",
"443 188 CURVE",
"445 182 OFFCURVE",
"446 176 OFFCURVE",
"445 170 CURVE",
"444 154 OFFCURVE",
"443 138 OFFCURVE",
"447 123 CURVE",
"448 120 OFFCURVE",
"447 116 OFFCURVE",
"446 113 CURVE",
"440 89 OFFCURVE",
"440 64 OFFCURVE",
"437 39 CURVE",
"436 31 OFFCURVE",
"436 23 OFFCURVE",
"440 14 CURVE",
"443 5 OFFCURVE",
"430 -7 OFFCURVE",
"420 -4 CURVE",
"418 -4 OFFCURVE",
"416 -2 OFFCURVE",
"416 0 CURVE",
"413 7 OFFCURVE",
"411 14 OFFCURVE",
"409 21 CURVE",
"407 29 OFFCURVE",
"404 37 OFFCURVE",
"418 37 CURVE",
"422 36 OFFCURVE",
"422 41 OFFCURVE",
"423 44 CURVE",
"427 79 OFFCURVE",
"429 113 OFFCURVE",
"424 147 CURVE",
"422 167 OFFCURVE",
"421 187 OFFCURVE",
"420 207 CURVE",
"419 225 OFFCURVE",
"416 243 OFFCURVE",
"413 261 CURVE",
"411 276 OFFCURVE",
"411 291 OFFCURVE",
"411 306 CURVE",
"412 318 OFFCURVE",
"410 318 OFFCURVE",
"398 319 CURVE",
"362 320 OFFCURVE",
"326 322 OFFCURVE",
"290 318 CURVE",
"268 316 OFFCURVE",
"245 317 OFFCURVE",
"223 312 CURVE",
"214 310 OFFCURVE",
"205 312 OFFCURVE",
"196 313 CURVE",
"156 315 OFFCURVE",
"116 322 OFFCURVE",
"76 323 CURVE",
"73 323 OFFCURVE",
"71 323 OFFCURVE",
"69 323 CURVE",
"50 323 OFFCURVE",
"50 323 OFFCURVE",
"50 305 CURVE",
"51 266 OFFCURVE",
"49 228 OFFCURVE",
"57 190 CURVE",
"61 169 OFFCURVE",
"64 148 OFFCURVE",
"62 126 CURVE",
"62 117 OFFCURVE",
"66 108 OFFCURVE",
"67 98 CURVE",
"68 89 OFFCURVE",
"64 82 OFFCURVE",
"57 78 CURVE",
"49 73 OFFCURVE",
"40 77 OFFCURVE",
"40 87 CURVE",
"35 136 OFFCURVE",
"29 185 OFFCURVE",
"26 235 CURVE",
"22 287 OFFCURVE",
"19 339 OFFCURVE",
"16 391 CURVE",
"14 447 OFFCURVE",
"5 503 OFFCURVE",
"4 560 CURVE",
"4 579 OFFCURVE",
"4 597 OFFCURVE",
"6 616 CURVE",
"7 631 OFFCURVE",
"8 646 OFFCURVE",
"7 662 CURVE",
"7 670 OFFCURVE",
"11 674 OFFCURVE",
"18 677 CURVE",
"29 681 OFFCURVE",
"37 675 OFFCURVE",
"35 664 CURVE",
"33 646 OFFCURVE",
"34 629 OFFCURVE",
"33 611 CURVE",
"31 564 OFFCURVE",
"34 518 OFFCURVE",
"41 471 CURVE",
"43 455 OFFCURVE",
"43 440 OFFCURVE",
"43 424 CURVE",
"42 409 OFFCURVE",
"44 395 OFFCURVE",
"45 380 CURVE",
"46 377 OFFCURVE",
"46 373 OFFCURVE",
"46 370 CURVE",
"48 345 OFFCURVE",
"48 343 OFFCURVE",
"72 344 CURVE",
"128 345 OFFCURVE",
"183 334 OFFCURVE",
"240 337 CURVE",
"265 338 OFFCURVE",
"289 339 OFFCURVE",
"314 342 CURVE",
"324 344 OFFCURVE",
"333 344 OFFCURVE",
"343 343 CURVE",
"362 340 OFFCURVE",
"381 343 OFFCURVE",
"400 341 CURVE",
"409 340 OFFCURVE",
"410 344 OFFCURVE",
"410 351 CURVE",
"410 375 OFFCURVE",
"409 398 OFFCURVE",
"409 422 CURVE",
"409 441 OFFCURVE",
"409 460 OFFCURVE",
"409 478 CURVE"
);
}
);
width = 462;
}
);
unicode = 0048;
},
{
glyphname = I;
lastChange = "2020-05-30 07:56:12 +0000";
layers = (
{
layerId = "489FF050-567D-4B2A-9DE5-E24268F9D2E9";
paths = (
{
closed = 1;
nodes = (
"161 727 OFFCURVE",
"158 734 OFFCURVE",
"143 749 CURVE",
"132 761 OFFCURVE",
"117 770 OFFCURVE",
"103 777 CURVE",
"87 785 OFFCURVE",
"71 783 OFFCURVE",
"56 775 CURVE",
"48 771 OFFCURVE",
"43 765 OFFCURVE",
"42 756 CURVE",
"41 743 OFFCURVE",
"37 731 OFFCURVE",
"37 718 CURVE",
"37 710 OFFCURVE",
"37 703 OFFCURVE",
"39 696 CURVE",
"44 683 OFFCURVE",
"53 675 OFFCURVE",
"65 670 CURVE",
"74 665 OFFCURVE",
"81 667 OFFCURVE",
"88 674 CURVE",
"93 679 OFFCURVE",
"101 676 OFFCURVE",
"108 673 CURVE",
"115 670 OFFCURVE",
"110 664 OFFCURVE",
"110 660 CURVE",
"109 653 OFFCURVE",
"112 649 OFFCURVE",
"119 649 CURVE",
"125 650 OFFCURVE",
"131 651 OFFCURVE",
"136 651 CURVE",
"146 650 OFFCURVE",
"151 656 OFFCURVE",
"153 664 CURVE",
"158 677 OFFCURVE",
"161 691 OFFCURVE",
"161 705 CURVE"
);
},
{
closed = 1;
nodes = (
"118 87 OFFCURVE",
"117 127 OFFCURVE",
"115 167 CURVE",
"114 181 OFFCURVE",
"112 194 OFFCURVE",
"110 208 CURVE",
"97 303 OFFCURVE",
"100 400 OFFCURVE",
"99 496 CURVE",
"98 524 OFFCURVE",
"93 552 OFFCURVE",
"89 580 CURVE",
"87 598 OFFCURVE",
"85 616 OFFCURVE",
"83 634 CURVE",
"82 646 OFFCURVE",
"82 647 OFFCURVE",
"69 649 CURVE",
"56 651 OFFCURVE",
"45 656 OFFCURVE",
"35 665 CURVE",
"20 678 OFFCURVE",
"14 694 OFFCURVE",
"15 713 CURVE",
"17 735 OFFCURVE",
"21 756 OFFCURVE",
"30 776 CURVE",
"39 797 OFFCURVE",
"57 803 OFFCURVE",
"77 805 CURVE",
"92 807 OFFCURVE",
"107 803 OFFCURVE",
"119 796 CURVE",
"140 783 OFFCURVE",
"159 768 OFFCURVE",
"174 748 CURVE",
"178 742 OFFCURVE",
"179 735 OFFCURVE",
"179 729 CURVE",
"181 714 OFFCURVE",
"182 699 OFFCURVE",
"177 685 CURVE",
"172 670 OFFCURVE",
"168 655 OFFCURVE",
"159 642 CURVE",
"153 635 OFFCURVE",
"148 632 OFFCURVE",
"140 632 CURVE",
"136 633 OFFCURVE",
"132 632 OFFCURVE",
"128 633 CURVE",
"112 634 OFFCURVE",
"111 629 OFFCURVE",
"112 613 CURVE",
"113 595 OFFCURVE",
"118 578 OFFCURVE",
"121 560 CURVE",
"126 521 OFFCURVE",
"125 482 OFFCURVE",
"126 442 CURVE",
"126 415 OFFCURVE",
"128 388 OFFCURVE",
"127 361 CURVE",
"126 340 OFFCURVE",
"131 319 OFFCURVE",
"127 298 CURVE",
"125 290 OFFCURVE",
"131 283 OFFCURVE",
"130 275 CURVE",
"127 255 OFFCURVE",
"136 236 OFFCURVE",
"134 217 CURVE",
"133 213 OFFCURVE",
"135 210 OFFCURVE",
"137 207 CURVE",
"140 201 OFFCURVE",
"140 195 OFFCURVE",
"138 189 CURVE",
"135 179 OFFCURVE",
"138 170 OFFCURVE",
"137 160 CURVE",
"137 140 OFFCURVE",
"140 119 OFFCURVE",
"140 98 CURVE",
"140 85 OFFCURVE",
"141 71 OFFCURVE",
"141 57 CURVE",
"141 54 OFFCURVE",
"141 51 OFFCURVE",
"143 48 CURVE",
"148 40 OFFCURVE",
"149 32 OFFCURVE",
"145 24 CURVE",
"142 18 OFFCURVE",
"144 11 OFFCURVE",
"144 5 CURVE",
"144 2 OFFCURVE",
"145 -2 OFFCURVE",
"145 -5 CURVE",
"145 -12 OFFCURVE",
"138 -18 OFFCURVE",
"130 -17 CURVE",
"122 -17 OFFCURVE",
"122 -11 OFFCURVE",
"122 -5 CURVE",
"121 12 OFFCURVE",
"119 29 OFFCURVE",
"120 45 CURVE"
);
}
);
width = 198;
}
);
unicode = 0049;
},
{
glyphname = J;
lastChange = "2020-05-30 07:56:23 +0000";
layers = (
{
layerId = "489FF050-567D-4B2A-9DE5-E24268F9D2E9";
paths = (
{
closed = 1;
nodes = (
"79 93 OFFCURVE",
"83 83 OFFCURVE",
"88 75 CURVE",
"101 51 OFFCURVE",
"119 36 OFFCURVE",
"146 29 CURVE",
"173 21 OFFCURVE",
"199 11 OFFCURVE",
"227 6 CURVE",
"262 -1 OFFCURVE",
"293 3 OFFCURVE",
"321 30 CURVE",
"334 43 OFFCURVE",
"347 57 OFFCURVE",
"362 67 CURVE",
"367 70 OFFCURVE",
"369 75 OFFCURVE",
"371 80 CURVE",
"378 103 OFFCURVE",
"387 126 OFFCURVE",
"394 150 CURVE",
"400 170 OFFCURVE",
"404 189 OFFCURVE",
"408 209 CURVE",
"412 233 OFFCURVE",
"413 258 OFFCURVE",
"413 282 CURVE",
"414 328 OFFCURVE",
"408 373 OFFCURVE",
"405 419 CURVE",
"402 459 OFFCURVE",
"398 499 OFFCURVE",
"394 539 CURVE",
"389 577 OFFCURVE",
"387 615 OFFCURVE",
"383 654 CURVE",
"381 672 OFFCURVE",
"381 672 OFFCURVE",
"362 674 CURVE",
"342 675 OFFCURVE",
"322 678 OFFCURVE",
"301 680 CURVE",
"268 684 OFFCURVE",
"234 681 OFFCURVE",
"200 676 CURVE",
"168 671 OFFCURVE",
"135 669 OFFCURVE",
"103 664 CURVE",
"79 660 OFFCURVE",
"54 656 OFFCURVE",
"30 653 CURVE",
"26 652 OFFCURVE",
"22 651 OFFCURVE",
"17 652 CURVE",
"10 654 OFFCURVE",
"5 658 OFFCURVE",
"5 666 CURVE",
"5 674 OFFCURVE",
"10 678 OFFCURVE",
"18 679 CURVE",
"29 680 OFFCURVE",
"40 681 OFFCURVE",
"51 683 CURVE",
"100 690 OFFCURVE",
"149 696 OFFCURVE",
"197 703 CURVE",
"231 707 OFFCURVE",
"265 710 OFFCURVE",
"299 707 CURVE",
"329 704 OFFCURVE",
"360 700 OFFCURVE",
"390 699 CURVE",
"404 699 OFFCURVE",
"411 690 OFFCURVE",
"410 677 CURVE",
"406 646 OFFCURVE",
"411 616 OFFCURVE",
"415 586 CURVE",
"421 534 OFFCURVE",
"426 483 OFFCURVE",
"430 431 CURVE",
"433 390 OFFCURVE",
"437 349 OFFCURVE",
"439 307 CURVE",
"442 254 OFFCURVE",
"436 203 OFFCURVE",
"422 151 CURVE",
"415 124 OFFCURVE",
"403 97 OFFCURVE",
"396 69 CURVE",
"394 64 OFFCURVE",
"391 60 OFFCURVE",
"387 57 CURVE",
"367 44 OFFCURVE",
"350 27 OFFCURVE",
"333 11 CURVE",
"312 -9 OFFCURVE",
"285 -14 OFFCURVE",
"258 -16 CURVE",
"244 -17 OFFCURVE",
"230 -15 OFFCURVE",
"216 -13 CURVE",
"180 -7 OFFCURVE",
"147 8 OFFCURVE",
"114 21 CURVE",
"100 26 OFFCURVE",
"89 34 OFFCURVE",
"84 48 CURVE",
"83 51 OFFCURVE",
"83 53 OFFCURVE",
"81 55 CURVE",
"67 65 OFFCURVE",
"70 81 OFFCURVE",
"67 97 CURVE"
);
}
);
width = 446;
}
);
unicode = 004A;
},
{
glyphname = K;
lastChange = "2020-05-30 07:58:05 +0000";
layers = (
{
layerId = "489FF050-567D-4B2A-9DE5-E24268F9D2E9";
paths = (
{
closed = 1;
nodes = (
"60 347 OFFCURVE",
"75 358 OFFCURVE",
"87 370 CURVE",
"107 391 OFFCURVE",
"126 410 OFFCURVE",
"147 428 CURVE",
"166 445 OFFCURVE",
"179 465 OFFCURVE",
"193 484 CURVE",
"206 501 OFFCURVE",
"218 519 OFFCURVE",
"228 538 CURVE",
"233 549 OFFCURVE",
"247 552 OFFCURVE",
"256 542 CURVE",
"262 535 OFFCURVE",
"258 530 OFFCURVE",
"254 523 CURVE",
"240 504 OFFCURVE",
"228 484 OFFCURVE",
"215 464 CURVE",
"208 451 OFFCURVE",
"200 438 OFFCURVE",
"189 428 CURVE",
"185 425 OFFCURVE",
"182 421 OFFCURVE",
"190 417 CURVE",
"197 414 OFFCURVE",
"198 410 OFFCURVE",
"200 403 CURVE",
"202 389 OFFCURVE",
"208 377 OFFCURVE",
"215 366 CURVE",
"217 363 OFFCURVE",
"219 361 OFFCURVE",
"219 359 CURVE",
"224 334 OFFCURVE",
"240 315 OFFCURVE",
"250 293 CURVE",
"252 289 OFFCURVE",
"252 283 OFFCURVE",
"253 279 CURVE",
"256 267 OFFCURVE",
"257 253 OFFCURVE",
"269 246 CURVE",
"274 242 OFFCURVE",
"274 237 OFFCURVE",
"274 233 CURVE",
"277 213 OFFCURVE",
"288 196 OFFCURVE",
"297 178 CURVE",
"303 163 OFFCURVE",
"310 149 OFFCURVE",
"320 136 CURVE",
"322 134 OFFCURVE",
"323 130 OFFCURVE",
"323 127 CURVE",
"322 105 OFFCURVE",
"334 87 OFFCURVE",
"339 66 CURVE",
"340 62 OFFCURVE",
"343 59 OFFCURVE",
"345 55 CURVE",
"350 50 OFFCURVE",
"350 42 OFFCURVE",
"346 37 CURVE",
"342 30 OFFCURVE",
"335 29 OFFCURVE",
"328 30 CURVE",
"320 31 OFFCURVE",
"316 37 OFFCURVE",
"316 44 CURVE",
"316 55 OFFCURVE",
"311 64 OFFCURVE",
"306 73 CURVE",
"303 75 OFFCURVE",
"301 77 OFFCURVE",
"301 80 CURVE",
"303 95 OFFCURVE",
"295 108 OFFCURVE",
"290 123 CURVE",
"284 142 OFFCURVE",
"273 161 OFFCURVE",
"266 181 CURVE",
"258 205 OFFCURVE",
"243 226 OFFCURVE",
"236 251 CURVE",
"232 267 OFFCURVE",
"221 280 OFFCURVE",
"215 294 CURVE",
"204 323 OFFCURVE",
"191 350 OFFCURVE",
"180 378 CURVE",
"168 406 OFFCURVE",
"166 407 OFFCURVE",
"145 385 CURVE",
"124 362 OFFCURVE",
"98 345 OFFCURVE",
"78 322 CURVE",
"65 305 OFFCURVE",
"50 289 OFFCURVE",
"44 269 CURVE",
"39 257 OFFCURVE",
"37 245 OFFCURVE",
"37 233 CURVE",
"35 185 OFFCURVE",
"35 138 OFFCURVE",
"38 91 CURVE",
"41 54 OFFCURVE",
"39 17 OFFCURVE",
"38 -19 CURVE",
"38 -30 OFFCURVE",
"27 -28 OFFCURVE",
"21 -28 CURVE",
"12 -29 OFFCURVE",
"6 -25 OFFCURVE",
"8 -16 CURVE",
"8 -4 OFFCURVE",
"10 7 OFFCURVE",
"11 18 CURVE",
"13 37 OFFCURVE",
"14 55 OFFCURVE",
"10 75 CURVE",
"6 94 OFFCURVE",
"6 115 OFFCURVE",
"6 135 CURVE",
"6 163 OFFCURVE",
"6 193 OFFCURVE",
"9 222 CURVE",
"14 292 OFFCURVE",
"13 362 OFFCURVE",
"17 433 CURVE",
"20 477 OFFCURVE",
"19 520 OFFCURVE",
"22 564 CURVE",
"24 593 OFFCURVE",
"23 624 OFFCURVE",
"30 654 CURVE",
"34 671 OFFCURVE",
"32 689 OFFCURVE",
"33 707 CURVE",
"34 720 OFFCURVE",
"36 723 OFFCURVE",
"45 723 CURVE",
"57 722 OFFCURVE",
"64 715 OFFCURVE",
"63 704 CURVE",
"61 692 OFFCURVE",
"60 680 OFFCURVE",
"57 669 CURVE",
"53 652 OFFCURVE",
"56 634 OFFCURVE",
"54 618 CURVE",
"48 563 OFFCURVE",
"54 508 OFFCURVE",
"49 454 CURVE",
"45 417 OFFCURVE",
"46 382 OFFCURVE",
"43 347 CURVE",
"42 344 OFFCURVE",
"42 340 OFFCURVE",
"46 334 CURVE"
);
}
);
width = 355;
}
);
unicode = 004B;
},
{
glyphname = L;
lastChange = "2020-05-30 07:58:15 +0000";
layers = (
{
layerId = "489FF050-567D-4B2A-9DE5-E24268F9D2E9";
paths = (
{
closed = 1;
nodes = (
"200 21 OFFCURVE",
"218 25 OFFCURVE",
"237 28 CURVE",
"247 29 OFFCURVE",
"257 30 OFFCURVE",
"267 30 CURVE",
"282 31 OFFCURVE",
"297 31 OFFCURVE",
"312 24 CURVE",
"323 19 OFFCURVE",
"335 16 OFFCURVE",
"347 12 CURVE",
"350 10 OFFCURVE",
"355 9 OFFCURVE",
"354 4 CURVE",
"352 -2 OFFCURVE",
"347 -2 OFFCURVE",
"343 -2 CURVE",
"324 0 OFFCURVE",
"306 0 OFFCURVE",
"288 7 CURVE",
"274 12 OFFCURVE",
"259 12 OFFCURVE",
"245 9 CURVE",
"206 1 OFFCURVE",
"168 3 OFFCURVE",
"130 12 CURVE",
"106 17 OFFCURVE",
"82 24 OFFCURVE",
"59 34 CURVE",
"49 38 OFFCURVE",
"39 38 OFFCURVE",
"30 43 CURVE",
"21 47 OFFCURVE",
"17 51 OFFCURVE",
"16 60 CURVE",
"14 87 OFFCURVE",
"9 113 OFFCURVE",
"8 140 CURVE",
"8 146 OFFCURVE",
"7 152 OFFCURVE",
"5 158 CURVE",
"3 165 OFFCURVE",
"3 172 OFFCURVE",
"4 180 CURVE",
"6 192 OFFCURVE",
"5 204 OFFCURVE",
"5 217 CURVE",
"4 255 OFFCURVE",
"10 293 OFFCURVE",
"13 332 CURVE",
"15 363 OFFCURVE",
"23 394 OFFCURVE",
"27 425 CURVE",
"31 453 OFFCURVE",
"34 480 OFFCURVE",
"34 508 CURVE",
"35 528 OFFCURVE",
"38 547 OFFCURVE",
"40 567 CURVE",
"41 589 OFFCURVE",
"47 610 OFFCURVE",
"49 632 CURVE",
"51 651 OFFCURVE",
"59 669 OFFCURVE",
"60 689 CURVE",
"60 695 OFFCURVE",
"68 699 OFFCURVE",
"75 698 CURVE",
"82 697 OFFCURVE",
"87 694 OFFCURVE",
"86 686 CURVE",
"86 683 OFFCURVE",
"87 680 OFFCURVE",
"86 677 CURVE",
"80 663 OFFCURVE",
"81 648 OFFCURVE",
"78 634 CURVE",
"66 581 OFFCURVE",
"63 528 OFFCURVE",
"61 474 CURVE",
"59 440 OFFCURVE",
"52 407 OFFCURVE",
"47 374 CURVE",
"43 352 OFFCURVE",
"40 330 OFFCURVE",
"39 308 CURVE",
"36 268 OFFCURVE",
"32 228 OFFCURVE",
"32 188 CURVE",
"33 175 OFFCURVE",
"33 161 OFFCURVE",
"35 148 CURVE",
"39 125 OFFCURVE",
"40 103 OFFCURVE",
"42 80 CURVE",
"43 71 OFFCURVE",
"46 62 OFFCURVE",
"55 58 CURVE",
"87 40 OFFCURVE",
"120 29 OFFCURVE",
"155 24 CURVE",
"164 22 OFFCURVE",
"172 23 OFFCURVE",
"181 23 CURVE"
);
}
);
width = 361;
}
);
unicode = 004C;
},
{
glyphname = M;
lastChange = "2020-05-30 07:58:26 +0000";
layers = (
{
layerId = "489FF050-567D-4B2A-9DE5-E24268F9D2E9";
paths = (
{
closed = 1;
nodes = (
"301 372 OFFCURVE",
"305 377 OFFCURVE",
"309 382 CURVE",
"340 421 OFFCURVE",
"366 464 OFFCURVE",
"390 508 CURVE",
"409 544 OFFCURVE",
"430 579 OFFCURVE",
"450 614 CURVE",
"453 619 OFFCURVE",
"455 624 OFFCURVE",
"457 630 CURVE",
"459 635 OFFCURVE",
"462 639 OFFCURVE",
"468 642 CURVE",
"475 646 OFFCURVE",
"482 643 OFFCURVE",
"484 636 CURVE",
"485 631 OFFCURVE",
"486 626 OFFCURVE",
"485 621 CURVE",
"479 602 OFFCURVE",
"483 582 OFFCURVE",
"486 563 CURVE",
"489 543 OFFCURVE",
"493 522 OFFCURVE",
"498 502 CURVE",
"502 484 OFFCURVE",
"510 466 OFFCURVE",
"514 447 CURVE",
"520 417 OFFCURVE",
"530 387 OFFCURVE",
"534 357 CURVE",
"539 324 OFFCURVE",
"547 291 OFFCURVE",
"551 258 CURVE",
"557 219 OFFCURVE",
"562 179 OFFCURVE",
"561 139 CURVE",
"560 124 OFFCURVE",
"563 109 OFFCURVE",
"563 95 CURVE",
"564 91 OFFCURVE",
"565 87 OFFCURVE",
"567 84 CURVE",
"572 78 OFFCURVE",
"569 75 OFFCURVE",
"564 72 CURVE",
"550 63 OFFCURVE",
"548 64 OFFCURVE",
"542 79 CURVE",
"541 84 OFFCURVE",
"540 89 OFFCURVE",
"540 94 CURVE",
"539 126 OFFCURVE",
"536 157 OFFCURVE",
"536 189 CURVE",
"537 215 OFFCURVE",
"533 241 OFFCURVE",
"529 267 CURVE",
"520 326 OFFCURVE",
"508 385 OFFCURVE",
"494 443 CURVE",
"487 471 OFFCURVE",
"478 498 OFFCURVE",
"473 526 CURVE",
"470 544 OFFCURVE",
"467 561 OFFCURVE",
"463 578 CURVE",
"463 581 OFFCURVE",
"463 585 OFFCURVE",
"462 588 CURVE",
"459 594 OFFCURVE",
"456 594 OFFCURVE",
"452 589 CURVE",
"451 588 OFFCURVE",
"448 586 OFFCURVE",
"448 584 CURVE",
"445 564 OFFCURVE",
"430 550 OFFCURVE",
"421 534 CURVE",
"412 517 OFFCURVE",
"403 500 OFFCURVE",
"391 485 CURVE",
"385 477 OFFCURVE",
"384 466 OFFCURVE",
"381 457 CURVE",
"378 450 OFFCURVE",
"376 444 OFFCURVE",
"371 439 CURVE",
"346 414 OFFCURVE",
"324 387 OFFCURVE",
"313 353 CURVE",
"310 343 OFFCURVE",
"302 341 OFFCURVE",
"295 336 CURVE",
"290 332 OFFCURVE",
"285 337 OFFCURVE",
"283 343 CURVE",
"270 369 OFFCURVE",
"255 392 OFFCURVE",
"244 418 CURVE",
"229 450 OFFCURVE",
"208 477 OFFCURVE",
"186 504 CURVE",
"163 533 OFFCURVE",
"144 564 OFFCURVE",
"123 594 CURVE",
"115 605 OFFCURVE",
"107 615 OFFCURVE",
"99 625 CURVE",
"97 629 OFFCURVE",
"94 631 OFFCURVE",
"89 629 CURVE",
"85 627 OFFCURVE",
"86 623 OFFCURVE",
"86 620 CURVE",
"87 612 OFFCURVE",
"86 603 OFFCURVE",
"85 595 CURVE",
"83 576 OFFCURVE",
"82 557 OFFCURVE",
"81 538 CURVE",
"80 525 OFFCURVE",
"76 512 OFFCURVE",
"70 498 CURVE",
"63 482 OFFCURVE",
"60 464 OFFCURVE",
"59 446 CURVE",
"58 443 OFFCURVE",
"59 439 OFFCURVE",
"58 436 CURVE",
"49 397 OFFCURVE",
"49 358 OFFCURVE",
"44 319 CURVE",
"40 289 OFFCURVE",
"41 258 OFFCURVE",
"35 228 CURVE",
"31 209 OFFCURVE",
"31 188 OFFCURVE",
"28 168 CURVE",
"25 140 OFFCURVE",
"22 112 OFFCURVE",
"22 83 CURVE",
"22 65 OFFCURVE",
"23 46 OFFCURVE",
"23 27 CURVE",
"23 20 OFFCURVE",
"22 13 OFFCURVE",
"19 6 CURVE",
"17 3 OFFCURVE",
"15 -1 OFFCURVE",
"10 0 CURVE",
"6 2 OFFCURVE",
"7 6 OFFCURVE",
"7 9 CURVE",
"7 33 OFFCURVE",
"7 57 OFFCURVE",
"7 81 CURVE",
"8 134 OFFCURVE",
"16 187 OFFCURVE",
"23 241 CURVE",
"26 269 OFFCURVE",
"26 297 OFFCURVE",
"28 325 CURVE",
"30 358 OFFCURVE",
"34 390 OFFCURVE",
"38 422 CURVE",
"44 464 OFFCURVE",
"53 505 OFFCURVE",
"57 547 CURVE",
"60 578 OFFCURVE",
"63 609 OFFCURVE",
"68 640 CURVE",
"71 662 OFFCURVE",
"76 683 OFFCURVE",
"81 705 CURVE",
"83 713 OFFCURVE",
"88 715 OFFCURVE",
"97 714 CURVE",
"106 713 OFFCURVE",
"105 706 OFFCURVE",
"104 700 CURVE",
"101 690 OFFCURVE",
"101 680 OFFCURVE",
"100 670 CURVE",
"98 660 OFFCURVE",
"107 652 OFFCURVE",
"112 644 CURVE",
"126 623 OFFCURVE",
"143 604 OFFCURVE",
"156 582 CURVE",
"176 552 OFFCURVE",
"197 524 OFFCURVE",
"219 496 CURVE",
"236 474 OFFCURVE",
"250 450 OFFCURVE",
"262 424 CURVE",
"271 404 OFFCURVE",
"280 384 OFFCURVE",
"296 366 CURVE"
);
}
);
width = 577;
}
);
unicode = 004D;
},
{
glyphname = N;
lastChange = "2020-05-30 07:58:36 +0000";
layers = (
{
layerId = "489FF050-567D-4B2A-9DE5-E24268F9D2E9";
paths = (
{
closed = 1;
nodes = (
"72 668 OFFCURVE",
"71 641 OFFCURVE",
"64 616 CURVE",
"57 586 OFFCURVE",
"51 556 OFFCURVE",
"47 526 CURVE",
"43 494 OFFCURVE",
"40 462 OFFCURVE",
"36 430 CURVE",
"32 391 OFFCURVE",
"32 352 OFFCURVE",
"30 313 CURVE",
"28 267 OFFCURVE",
"26 221 OFFCURVE",
"26 175 CURVE",
"26 123 OFFCURVE",
"27 72 OFFCURVE",
"28 20 CURVE",
"28 14 OFFCURVE",
"29 8 OFFCURVE",
"31 2 CURVE",
"32 -3 OFFCURVE",
"33 -7 OFFCURVE",
"33 -11 CURVE",
"32 -18 OFFCURVE",
"18 -33 OFFCURVE",
"13 -31 CURVE",
"5 -28 OFFCURVE",
"8 -20 OFFCURVE",
"8 -13 CURVE",
"3 60 OFFCURVE",
"9 133 OFFCURVE",
"10 207 CURVE",
"10 239 OFFCURVE",
"11 271 OFFCURVE",
"12 304 CURVE",
"14 362 OFFCURVE",
"15 419 OFFCURVE",
"24 477 CURVE",
"30 518 OFFCURVE",
"36 559 OFFCURVE",
"42 601 CURVE",
"47 634 OFFCURVE",
"59 665 OFFCURVE",
"69 697 CURVE",
"71 704 OFFCURVE",
"73 710 OFFCURVE",
"74 717 CURVE",
"75 723 OFFCURVE",
"78 728 OFFCURVE",
"83 730 CURVE",
"89 731 OFFCURVE",
"93 726 OFFCURVE",
"95 722 CURVE",
"105 702 OFFCURVE",
"122 687 OFFCURVE",
"134 668 CURVE",
"140 658 OFFCURVE",
"147 649 OFFCURVE",
"153 640 CURVE",
"168 615 OFFCURVE",
"176 587 OFFCURVE",
"187 560 CURVE",
"211 501 OFFCURVE",
"233 441 OFFCURVE",
"265 386 CURVE",
"279 362 OFFCURVE",
"292 337 OFFCURVE",
"312 316 CURVE",
"321 305 OFFCURVE",
"328 291 OFFCURVE",
"335 278 CURVE",
"342 265 OFFCURVE",
"350 252 OFFCURVE",
"359 240 CURVE",
"360 241 OFFCURVE",
"362 241 OFFCURVE",
"362 242 CURVE",
"371 274 OFFCURVE",
"385 304 OFFCURVE",
"394 335 CURVE",
"398 348 OFFCURVE",
"402 360 OFFCURVE",
"406 373 CURVE",
"422 416 OFFCURVE",
"433 461 OFFCURVE",
"438 506 CURVE",
"444 557 OFFCURVE",
"451 608 OFFCURVE",
"458 658 CURVE",
"458 660 OFFCURVE",
"459 663 OFFCURVE",
"460 665 CURVE",
"461 666 OFFCURVE",
"463 668 OFFCURVE",
"464 668 CURVE",
"466 668 OFFCURVE",
"467 666 OFFCURVE",
"468 664 CURVE",
"468 663 OFFCURVE",
"469 662 OFFCURVE",
"469 661 CURVE",
"461 639 OFFCURVE",
"466 615 OFFCURVE",
"459 593 CURVE",
"454 581 OFFCURVE",
"457 568 OFFCURVE",
"456 556 CURVE",
"456 534 OFFCURVE",
"452 512 OFFCURVE",
"449 490 CURVE",
"447 477 OFFCURVE",
"445 463 OFFCURVE",
"442 450 CURVE",
"434 415 OFFCURVE",
"427 379 OFFCURVE",
"414 345 CURVE",
"408 330 OFFCURVE",
"406 313 OFFCURVE",
"400 298 CURVE",
"394 285 OFFCURVE",
"389 271 OFFCURVE",
"385 257 CURVE",
"381 244 OFFCURVE",
"381 231 OFFCURVE",
"385 218 CURVE",
"388 210 OFFCURVE",
"390 201 OFFCURVE",
"382 195 CURVE",
"376 191 OFFCURVE",
"367 189 OFFCURVE",
"359 187 CURVE",
"355 185 OFFCURVE",
"354 189 OFFCURVE",
"353 192 CURVE",
"345 214 OFFCURVE",
"332 231 OFFCURVE",
"319 250 CURVE",
"309 265 OFFCURVE",
"300 281 OFFCURVE",
"290 297 CURVE",
"276 321 OFFCURVE",
"259 343 OFFCURVE",
"246 367 CURVE",
"236 386 OFFCURVE",
"225 406 OFFCURVE",
"218 427 CURVE",
"212 445 OFFCURVE",
"203 461 OFFCURVE",
"197 479 CURVE",
"182 517 OFFCURVE",
"166 553 OFFCURVE",
"150 590 CURVE",
"134 628 OFFCURVE",
"112 661 OFFCURVE",
"83 693 CURVE"
);
},
{
closed = 1;
nodes = (
"474 696 OFFCURVE",
"472 691 OFFCURVE",
"468 691 CURVE",
"463 691 OFFCURVE",
"463 696 OFFCURVE",
"463 700 CURVE",
"463 704 OFFCURVE",
"464 707 OFFCURVE",
"469 707 CURVE",
"473 707 OFFCURVE",
"475 704 OFFCURVE",
"475 700 CURVE"
);
}
);
width = 485;
}
);
unicode = 004E;
},
{
glyphname = O;
lastChange = "2020-05-30 07:58:47 +0000";
layers = (
{
layerId = "489FF050-567D-4B2A-9DE5-E24268F9D2E9";
paths = (
{
closed = 1;
nodes = (
"4 433 OFFCURVE",
"5 461 OFFCURVE",
"9 489 CURVE",
"14 522 OFFCURVE",
"25 554 OFFCURVE",
"40 583 CURVE",
"55 611 OFFCURVE",
"69 640 OFFCURVE",
"90 664 CURVE",
"106 683 OFFCURVE",
"124 701 OFFCURVE",
"145 716 CURVE",
"172 733 OFFCURVE",
"200 745 OFFCURVE",
"231 752 CURVE",
"249 757 OFFCURVE",
"267 760 OFFCURVE",
"285 759 CURVE",
"313 757 OFFCURVE",
"341 754 OFFCURVE",
"366 738 CURVE",
"383 728 OFFCURVE",
"400 719 OFFCURVE",
"417 708 CURVE",
"441 692 OFFCURVE",
"464 674 OFFCURVE",
"483 652 CURVE",
"491 643 OFFCURVE",
"501 636 OFFCURVE",
"509 627 CURVE",
"513 621 OFFCURVE",
"519 617 OFFCURVE",
"519 608 CURVE",
"519 605 OFFCURVE",
"521 600 OFFCURVE",
"524 598 CURVE",
"535 589 OFFCURVE",
"537 576 OFFCURVE",
"544 565 CURVE",
"557 546 OFFCURVE",
"563 523 OFFCURVE",
"574 502 CURVE",
"581 490 OFFCURVE",
"582 475 OFFCURVE",
"588 463 CURVE",
"607 426 OFFCURVE",
"611 387 OFFCURVE",
"615 347 CURVE",
"618 314 OFFCURVE",
"608 284 OFFCURVE",
"599 254 CURVE",
"590 222 OFFCURVE",
"575 193 OFFCURVE",
"563 163 CURVE",
"558 147 OFFCURVE",
"550 133 OFFCURVE",
"543 118 CURVE",
"536 103 OFFCURVE",
"522 94 OFFCURVE",
"511 83 CURVE",
"474 46 OFFCURVE",
"436 9 OFFCURVE",
"398 -27 CURVE",
"396 -30 OFFCURVE",
"393 -32 OFFCURVE",
"390 -34 CURVE",
"372 -48 OFFCURVE",
"353 -63 OFFCURVE",
"334 -76 CURVE",
"322 -85 OFFCURVE",
"308 -90 OFFCURVE",
"294 -95 CURVE",
"286 -98 OFFCURVE",
"278 -98 OFFCURVE",
"272 -91 CURVE",
"270 -89 OFFCURVE",
"268 -86 OFFCURVE",
"270 -82 CURVE",
"272 -79 OFFCURVE",
"276 -79 OFFCURVE",
"278 -80 CURVE",
"288 -86 OFFCURVE",
"298 -84 OFFCURVE",
"307 -79 CURVE",
"313 -77 OFFCURVE",
"318 -75 OFFCURVE",
"320 -67 CURVE",
"320 -63 OFFCURVE",
"326 -59 OFFCURVE",
"329 -56 CURVE",
"336 -51 OFFCURVE",
"334 -61 OFFCURVE",
"336 -60 CURVE",
"343 -59 OFFCURVE",
"351 -55 OFFCURVE",
"350 -48 CURVE",
"349 -39 OFFCURVE",
"355 -36 OFFCURVE",
"361 -33 CURVE",
"369 -27 OFFCURVE",
"375 -18 OFFCURVE",
"388 -18 CURVE",
"396 -18 OFFCURVE",
"400 -9 OFFCURVE",
"401 -2 CURVE",
"403 4 OFFCURVE",
"406 7 OFFCURVE",
"411 9 CURVE",
"413 10 OFFCURVE",
"415 12 OFFCURVE",
"416 14 CURVE",
"426 30 OFFCURVE",
"443 39 OFFCURVE",
"457 51 CURVE",
"462 55 OFFCURVE",
"467 61 OFFCURVE",
"471 67 CURVE",
"475 75 OFFCURVE",
"482 82 OFFCURVE",
"488 88 CURVE",
"517 114 OFFCURVE",
"537 145 OFFCURVE",
"547 183 CURVE",
"550 197 OFFCURVE",
"560 208 OFFCURVE",
"565 222 CURVE",
"579 255 OFFCURVE",
"587 289 OFFCURVE",
"592 325 CURVE",
"594 334 OFFCURVE",
"592 343 OFFCURVE",
"591 352 CURVE",
"586 383 OFFCURVE",
"584 416 OFFCURVE",
"572 446 CURVE",
"557 483 OFFCURVE",
"544 522 OFFCURVE",
"523 557 CURVE",
"517 568 OFFCURVE",
"511 579 OFFCURVE",
"505 590 CURVE",
"477 634 OFFCURVE",
"440 669 OFFCURVE",
"396 698 CURVE",
"374 712 OFFCURVE",
"352 727 OFFCURVE",
"326 735 CURVE",
"300 743 OFFCURVE",
"273 747 OFFCURVE",
"246 740 CURVE",
"212 731 OFFCURVE",
"177 721 OFFCURVE",
"148 700 CURVE",
"144 697 OFFCURVE",
"140 694 OFFCURVE",
"136 690 CURVE",
"122 674 OFFCURVE",
"107 659 OFFCURVE",
"94 641 CURVE",
"82 624 OFFCURVE",
"73 605 OFFCURVE",
"63 586 CURVE",
"55 572 OFFCURVE",
"49 558 OFFCURVE",
"44 544 CURVE",
"35 520 OFFCURVE",
"26 495 OFFCURVE",
"25 469 CURVE",
"25 446 OFFCURVE",
"21 423 OFFCURVE",
"22 400 CURVE",
"24 364 OFFCURVE",
"30 329 OFFCURVE",
"33 293 CURVE",
"35 266 OFFCURVE",
"43 240 OFFCURVE",
"50 215 CURVE",
"54 197 OFFCURVE",
"58 177 OFFCURVE",
"70 162 CURVE",
"74 157 OFFCURVE",
"74 150 OFFCURVE",
"77 144 CURVE",
"87 120 OFFCURVE",
"102 98 OFFCURVE",
"117 77 CURVE",
"129 59 OFFCURVE",
"143 44 OFFCURVE",
"155 28 CURVE",
"168 11 OFFCURVE",
"185 -1 OFFCURVE",
"199 -15 CURVE",
"217 -32 OFFCURVE",
"239 -38 OFFCURVE",
"261 -46 CURVE",
"264 -47 OFFCURVE",
"267 -47 OFFCURVE",
"271 -49 CURVE",
"276 -51 OFFCURVE",
"279 -55 OFFCURVE",
"277 -60 CURVE",
"275 -66 OFFCURVE",
"271 -69 OFFCURVE",
"265 -67 CURVE",
"258 -66 OFFCURVE",
"251 -64 OFFCURVE",
"244 -61 CURVE",
"219 -50 OFFCURVE",
"192 -40 OFFCURVE",
"173 -20 CURVE",
"154 1 OFFCURVE",
"134 21 OFFCURVE",
"116 43 CURVE",
"92 73 OFFCURVE",
"73 105 OFFCURVE",
"57 139 CURVE",
"33 191 OFFCURVE",
"15 245 OFFCURVE",
"11 303 CURVE",
"8 337 OFFCURVE",
"4 370 OFFCURVE",
"5 403 CURVE"
);
}
);
width = 622;
}
);
unicode = 004F;
},
{
glyphname = Oslash;
lastChange = "2020-05-30 07:58:59 +0000";
layers = (
{
layerId = "489FF050-567D-4B2A-9DE5-E24268F9D2E9";
paths = (
{
closed = 1;
nodes = (
"120 129 OFFCURVE",
"127 143 OFFCURVE",
"134 157 CURVE",
"155 197 OFFCURVE",
"177 237 OFFCURVE",
"198 276 CURVE",
"222 320 OFFCURVE",
"246 364 OFFCURVE",
"269 407 CURVE",
"281 428 OFFCURVE",
"294 448 OFFCURVE",
"303 470 CURVE",
"315 500 OFFCURVE",
"329 529 OFFCURVE",
"350 554 CURVE",
"357 563 OFFCURVE",
"362 573 OFFCURVE",
"367 583 CURVE",
"373 594 OFFCURVE",
"375 608 OFFCURVE",
"383 618 CURVE",
"393 633 OFFCURVE",
"403 648 OFFCURVE",
"417 660 CURVE",
"429 670 OFFCURVE",
"428 674 OFFCURVE",
"413 681 CURVE",
"412 681 OFFCURVE",
"411 681 OFFCURVE",
"410 682 CURVE",
"374 698 OFFCURVE",
"336 702 OFFCURVE",
"298 708 CURVE",
"289 710 OFFCURVE",
"279 709 OFFCURVE",
"269 708 CURVE",
"223 703 OFFCURVE",
"186 681 OFFCURVE",
"151 651 CURVE",
"128 630 OFFCURVE",
"111 605 OFFCURVE",
"93 581 CURVE",
"74 554 OFFCURVE",
"57 525 OFFCURVE",
"47 493 CURVE",
"45 485 OFFCURVE",
"41 478 OFFCURVE",
"40 469 CURVE",
"37 444 OFFCURVE",
"32 419 OFFCURVE",
"28 394 CURVE",
"26 384 OFFCURVE",
"23 375 OFFCURVE",
"25 366 CURVE",
"28 346 OFFCURVE",
"26 325 OFFCURVE",
"29 305 CURVE",
"34 277 OFFCURVE",
"35 249 OFFCURVE",
"47 223 CURVE",
"58 198 OFFCURVE",
"62 168 OFFCURVE",
"83 148 CURVE",
"84 148 OFFCURVE",
"84 146 OFFCURVE",
"85 145 CURVE",
"88 131 OFFCURVE",
"98 122 OFFCURVE",
"111 114 CURVE"
);
},
{
closed = 1;
nodes = (
"514 486 OFFCURVE",
"511 531 OFFCURVE",
"502 576 CURVE",
"496 608 OFFCURVE",
"480 634 OFFCURVE",
"455 654 CURVE",
"441 666 OFFCURVE",
"438 665 OFFCURVE",
"426 651 CURVE",
"425 650 OFFCURVE",
"424 649 OFFCURVE",
"423 648 CURVE",
"413 633 OFFCURVE",
"400 620 OFFCURVE",
"399 600 CURVE",
"398 594 OFFCURVE",
"395 587 OFFCURVE",
"391 582 CURVE",
"369 557 OFFCURVE",
"353 529 OFFCURVE",
"336 500 CURVE",
"332 493 OFFCURVE",
"332 484 OFFCURVE",
"327 477 CURVE",
"314 455 OFFCURVE",
"302 433 OFFCURVE",
"289 411 CURVE",
"265 368 OFFCURVE",
"242 325 OFFCURVE",
"219 281 CURVE",
"190 227 OFFCURVE",
"161 173 OFFCURVE",
"132 119 CURVE",
"123 103 OFFCURVE",
"124 98 OFFCURVE",
"140 89 CURVE",
"166 74 OFFCURVE",
"191 58 OFFCURVE",
"218 48 CURVE",
"237 42 OFFCURVE",
"256 28 OFFCURVE",
"278 35 CURVE",
"280 36 OFFCURVE",
"282 35 OFFCURVE",
"285 34 CURVE",
"294 31 OFFCURVE",
"300 35 OFFCURVE",
"307 42 CURVE",
"322 58 OFFCURVE",
"334 76 OFFCURVE",
"349 92 CURVE",
"373 118 OFFCURVE",
"393 147 OFFCURVE",
"412 176 CURVE",
"434 210 OFFCURVE",
"455 246 OFFCURVE",
"475 281 CURVE",
"484 297 OFFCURVE",
"494 312 OFFCURVE",
"499 330 CURVE",
"509 366 OFFCURVE",
"518 403 OFFCURVE",
"516 441 CURVE"
);
},
{
closed = 1;
nodes = (
"316 726 OFFCURVE",
"338 721 OFFCURVE",
"361 716 CURVE",
"385 711 OFFCURVE",
"409 706 OFFCURVE",
"430 694 CURVE",
"438 689 OFFCURVE",
"445 690 OFFCURVE",
"451 697 CURVE",
"453 699 OFFCURVE",
"456 702 OFFCURVE",
"458 704 CURVE",
"462 707 OFFCURVE",
"467 709 OFFCURVE",
"470 705 CURVE",
"474 701 OFFCURVE",
"470 696 OFFCURVE",
"468 693 CURVE",
"467 691 OFFCURVE",
"464 690 OFFCURVE",
"462 689 CURVE",
"455 684 OFFCURVE",
"455 682 OFFCURVE",
"462 677 CURVE",
"467 672 OFFCURVE",
"473 667 OFFCURVE",
"479 663 CURVE",
"507 643 OFFCURVE",
"518 613 OFFCURVE",
"524 581 CURVE",
"533 537 OFFCURVE",
"537 493 OFFCURVE",
"539 448 CURVE",
"541 426 OFFCURVE",
"536 404 OFFCURVE",
"532 382 CURVE",
"530 369 OFFCURVE",
"527 356 OFFCURVE",
"526 342 CURVE",
"524 326 OFFCURVE",
"515 313 OFFCURVE",
"506 299 CURVE",
"477 250 OFFCURVE",
"453 198 OFFCURVE",
"419 152 CURVE",
"394 119 OFFCURVE",
"371 83 OFFCURVE",
"341 55 CURVE",
"334 49 OFFCURVE",
"330 42 OFFCURVE",
"326 34 CURVE",
"324 28 OFFCURVE",
"321 24 OFFCURVE",
"318 19 CURVE",
"303 -4 OFFCURVE",
"293 -8 OFFCURVE",
"269 5 CURVE",
"248 15 OFFCURVE",
"226 20 OFFCURVE",
"205 29 CURVE",
"193 34 OFFCURVE",
"181 40 OFFCURVE",
"171 48 CURVE",
"156 58 OFFCURVE",
"137 63 OFFCURVE",
"124 77 CURVE",
"119 82 OFFCURVE",
"115 76 OFFCURVE",
"113 73 CURVE",
"105 59 OFFCURVE",
"99 44 OFFCURVE",
"94 29 CURVE",
"88 12 OFFCURVE",
"87 -6 OFFCURVE",
"80 -23 CURVE",
"73 -38 OFFCURVE",
"65 -53 OFFCURVE",
"58 -68 CURVE",
"56 -72 OFFCURVE",
"53 -75 OFFCURVE",
"49 -73 CURVE",
"44 -71 OFFCURVE",
"46 -68 OFFCURVE",
"46 -64 CURVE",
"49 -44 OFFCURVE",
"56 -23 OFFCURVE",
"64 -4 CURVE",
"72 15 OFFCURVE",
"78 35 OFFCURVE",
"86 54 CURVE",
"90 63 OFFCURVE",
"94 73 OFFCURVE",
"99 82 CURVE",
"102 88 OFFCURVE",
"102 94 OFFCURVE",
"96 98 CURVE",
"76 114 OFFCURVE",
"62 135 OFFCURVE",
"51 159 CURVE",
"18 230 OFFCURVE",
"1 303 OFFCURVE",
"8 382 CURVE",
"15 457 OFFCURVE",
"38 525 OFFCURVE",
"79 587 CURVE",
"112 635 OFFCURVE",
"153 677 OFFCURVE",
"206 705 CURVE",
"233 719 OFFCURVE",
"262 726 OFFCURVE",
"292 726 CURVE"
);
}
);
width = 545;
}
);
unicode = 00D8;
},
{
glyphname = P;
lastChange = "2020-05-30 07:59:10 +0000";
layers = (
{
layerId = "489FF050-567D-4B2A-9DE5-E24268F9D2E9";
paths = (
{
closed = 1;
nodes = (
"134 683 OFFCURVE",
"121 684 OFFCURVE",
"109 683 CURVE",
"95 682 OFFCURVE",
"94 682 OFFCURVE",
"92 667 CURVE",
"88 637 OFFCURVE",
"82 606 OFFCURVE",
"74 576 CURVE",
"62 534 OFFCURVE",
"56 492 OFFCURVE",
"50 449 CURVE",
"45 415 OFFCURVE",
"42 382 OFFCURVE",
"35 348 CURVE",
"31 328 OFFCURVE",
"36 323 OFFCURVE",
"58 321 CURVE",
"74 320 OFFCURVE",
"91 318 OFFCURVE",
"107 322 CURVE",
"142 332 OFFCURVE",
"179 335 OFFCURVE",
"215 344 CURVE",
"224 346 OFFCURVE",
"232 349 OFFCURVE",
"241 350 CURVE",
"268 353 OFFCURVE",
"293 359 OFFCURVE",
"316 373 CURVE",
"338 384 OFFCURVE",
"353 400 OFFCURVE",
"362 423 CURVE",
"375 456 OFFCURVE",
"386 489 OFFCURVE",
"395 524 CURVE",
"402 547 OFFCURVE",
"403 570 OFFCURVE",
"399 594 CURVE",
"395 613 OFFCURVE",
"385 626 OFFCURVE",
"368 634 CURVE",
"344 645 OFFCURVE",
"319 652 OFFCURVE",
"294 659 CURVE",
"246 675 OFFCURVE",
"197 683 OFFCURVE",
"152 683 CURVE"
);
},
{
closed = 1;
nodes = (
"30 -4 OFFCURVE",
"28 0 OFFCURVE",
"25 4 CURVE",
"14 20 OFFCURVE",
"12 37 OFFCURVE",
"13 55 CURVE",
"13 84 OFFCURVE",
"14 112 OFFCURVE",
"12 141 CURVE",
"10 156 OFFCURVE",
"4 172 OFFCURVE",
"10 188 CURVE",
"11 193 OFFCURVE",
"7 200 OFFCURVE",
"7 206 CURVE",
"7 240 OFFCURVE",
"5 274 OFFCURVE",
"8 307 CURVE",
"12 345 OFFCURVE",
"17 383 OFFCURVE",
"23 420 CURVE",
"26 438 OFFCURVE",
"26 456 OFFCURVE",
"29 474 CURVE",
"38 522 OFFCURVE",
"48 571 OFFCURVE",
"58 620 CURVE",
"64 645 OFFCURVE",
"68 671 OFFCURVE",
"72 696 CURVE",
"73 700 OFFCURVE",
"73 704 OFFCURVE",
"75 708 CURVE",
"78 715 OFFCURVE",
"84 718 OFFCURVE",
"90 713 CURVE",
"99 705 OFFCURVE",
"109 706 OFFCURVE",
"120 705 CURVE",
"157 703 OFFCURVE",
"194 700 OFFCURVE",
"231 694 CURVE",
"263 689 OFFCURVE",
"293 677 OFFCURVE",
"324 670 CURVE",
"346 666 OFFCURVE",
"366 656 OFFCURVE",
"387 647 CURVE",
"401 641 OFFCURVE",
"411 631 OFFCURVE",
"416 616 CURVE",
"428 585 OFFCURVE",
"428 555 OFFCURVE",
"420 523 CURVE",
"411 488 OFFCURVE",
"398 454 OFFCURVE",
"386 420 CURVE",
"377 397 OFFCURVE",
"362 378 OFFCURVE",
"337 368 CURVE",
"317 359 OFFCURVE",
"296 352 OFFCURVE",
"276 343 CURVE",
"262 337 OFFCURVE",
"247 338 OFFCURVE",
"233 335 CURVE",
"220 332 OFFCURVE",
"209 329 OFFCURVE",
"197 326 CURVE",
"178 321 OFFCURVE",
"159 318 OFFCURVE",
"140 315 CURVE",
"122 312 OFFCURVE",
"105 307 OFFCURVE",
"87 307 CURVE",
"75 308 OFFCURVE",
"63 309 OFFCURVE",
"52 314 CURVE",
"37 321 OFFCURVE",
"33 318 OFFCURVE",
"32 301 CURVE",
"31 262 OFFCURVE",
"30 222 OFFCURVE",
"32 182 CURVE",
"34 140 OFFCURVE",
"31 99 OFFCURVE",
"32 57 CURVE",
"33 37 OFFCURVE",
"34 17 OFFCURVE",
"39 -4 CURVE"
);
}
);
width = 432;
}
);
unicode = 0050;
},
{
glyphname = Q;
lastChange = "2020-05-30 07:59:22 +0000";
layers = (
{
layerId = "489FF050-567D-4B2A-9DE5-E24268F9D2E9";
paths = (
{
closed = 1;
nodes = (
"298 7 OFFCURVE",
"297 7 OFFCURVE",
"295 7 CURVE",
"294 6 OFFCURVE",
"292 4 OFFCURVE",
"292 3 CURVE",
"292 1 OFFCURVE",
"294 1 OFFCURVE",
"295 2 CURVE",
"297 2 OFFCURVE",
"299 3 OFFCURVE",
"300 6 CURVE"
);
},
{
closed = 1;
nodes = (
"496 374 OFFCURVE",
"496 374 OFFCURVE",
"500 365 CURVE",
"504 371 OFFCURVE",
"507 376 OFFCURVE",
"504 382 CURVE"
);
},
{
closed = 1;
nodes = (
"478 305 OFFCURVE",
"475 298 OFFCURVE",
"476 287 CURVE",
"486 293 OFFCURVE",
"484 302 OFFCURVE",
"485 310 CURVE"
);
},
{
closed = 1;
nodes = (
"487 341 OFFCURVE",
"487 339 OFFCURVE",
"491 327 CURVE",
"497 339 OFFCURVE",
"497 339 OFFCURVE",
"496 352 CURVE"
);
},
{
closed = 1;
nodes = (
"445 179 OFFCURVE",
"451 200 OFFCURVE",
"457 220 CURVE",
"462 235 OFFCURVE",
"467 250 OFFCURVE",
"462 266 CURVE",
"461 271 OFFCURVE",
"462 275 OFFCURVE",
"464 279 CURVE",
"471 297 OFFCURVE",
"474 315 OFFCURVE",
"480 333 CURVE",
"487 354 OFFCURVE",
"493 376 OFFCURVE",
"495 399 CURVE",
"497 415 OFFCURVE",
"501 431 OFFCURVE",
"504 447 CURVE",
"511 487 OFFCURVE",
"518 527 OFFCURVE",
"516 568 CURVE",
"516 581 OFFCURVE",
"514 594 OFFCURVE",
"509 606 CURVE",
"489 656 OFFCURVE",
"451 690 OFFCURVE",
"406 717 CURVE",
"361 743 OFFCURVE",
"311 755 OFFCURVE",
"259 757 CURVE",
"217 760 OFFCURVE",
"178 753 OFFCURVE",
"142 730 CURVE",
"136 727 OFFCURVE",
"129 726 OFFCURVE",
"125 721 CURVE",
"108 700 OFFCURVE",
"89 681 OFFCURVE",
"75 658 CURVE",
"56 625 OFFCURVE",
"47 588 OFFCURVE",
"39 551 CURVE",
"32 522 OFFCURVE",
"28 491 OFFCURVE",
"24 461 CURVE",
"23 451 OFFCURVE",
"20 440 OFFCURVE",
"20 429 CURVE",
"22 400 OFFCURVE",
"22 371 OFFCURVE",
"26 342 CURVE",
"35 281 OFFCURVE",
"41 220 OFFCURVE",
"44 160 CURVE",
"46 141 OFFCURVE",
"51 123 OFFCURVE",
"58 106 CURVE",
"63 91 OFFCURVE",
"72 78 OFFCURVE",
"80 64 CURVE",
"91 45 OFFCURVE",
"106 27 OFFCURVE",
"119 9 CURVE",
"135 -12 OFFCURVE",
"157 -25 OFFCURVE",
"180 -34 CURVE",
"196 -41 OFFCURVE",
"212 -43 OFFCURVE",
"229 -35 CURVE",
"246 -28 OFFCURVE",
"260 -17 OFFCURVE",
"276 -9 CURVE",
"279 -8 OFFCURVE",
"283 -7 OFFCURVE",
"282 -4 CURVE",
"279 5 OFFCURVE",
"288 6 OFFCURVE",
"293 10 CURVE",
"310 22 OFFCURVE",
"329 31 OFFCURVE",
"343 46 CURVE",
"348 51 OFFCURVE",
"354 60 OFFCURVE",
"361 59 CURVE",
"372 57 OFFCURVE",
"375 69 OFFCURVE",
"384 69 CURVE",
"386 70 OFFCURVE",
"389 76 OFFCURVE",
"388 80 CURVE",
"382 92 OFFCURVE",
"390 97 OFFCURVE",
"397 104 CURVE",
"402 100 OFFCURVE",
"396 95 OFFCURVE",
"401 91 CURVE",
"408 101 OFFCURVE",
"410 112 OFFCURVE",
"416 120 CURVE",
"422 128 OFFCURVE",
"427 137 OFFCURVE",
"428 150 CURVE",
"419 143 OFFCURVE",
"420 132 OFFCURVE",
"410 128 CURVE",
"420 149 OFFCURVE",
"427 170 OFFCURVE",
"438 190 CURVE",
"437 180 OFFCURVE",
"430 171 OFFCURVE",
"434 158 CURVE"
);
},
{
closed = 1;
nodes = (
"235 -54 OFFCURVE",
"241 -54 OFFCURVE",
"245 -55 CURVE",
"250 -57 OFFCURVE",
"255 -59 OFFCURVE",
"253 -66 CURVE",
"252 -72 OFFCURVE",
"244 -76 OFFCURVE",
"238 -73 CURVE",
"227 -68 OFFCURVE",
"215 -66 OFFCURVE",
"202 -63 CURVE",
"192 -61 OFFCURVE",
"182 -58 OFFCURVE",
"171 -61 CURVE",
"168 -62 OFFCURVE",
"163 -62 OFFCURVE",
"161 -59 CURVE",
"157 -50 OFFCURVE",
"142 -52 OFFCURVE",
"142 -39 CURVE",
"142 -37 OFFCURVE",
"137 -34 OFFCURVE",
"134 -32 CURVE",
"114 -17 OFFCURVE",
"97 1 OFFCURVE",
"84 24 CURVE",
"74 41 OFFCURVE",
"63 56 OFFCURVE",
"52 72 CURVE",
"44 86 OFFCURVE",
"39 100 OFFCURVE",
"35 116 CURVE",
"27 144 OFFCURVE",
"26 173 OFFCURVE",
"23 201 CURVE",
"17 240 OFFCURVE",
"16 280 OFFCURVE",
"10 319 CURVE",
"3 358 OFFCURVE",
"2 398 OFFCURVE",
"5 437 CURVE",
"8 475 OFFCURVE",
"12 513 OFFCURVE",
"20 550 CURVE",
"30 593 OFFCURVE",
"41 635 OFFCURVE",
"65 673 CURVE",
"74 687 OFFCURVE",
"87 698 OFFCURVE",
"98 710 CURVE",
"104 717 OFFCURVE",
"113 722 OFFCURVE",
"117 732 CURVE",
"117 733 OFFCURVE",
"120 735 OFFCURVE",
"121 736 CURVE",
"158 758 OFFCURVE",
"197 771 OFFCURVE",
"240 772 CURVE",
"278 772 OFFCURVE",
"315 767 OFFCURVE",
"350 757 CURVE",
"383 747 OFFCURVE",
"414 732 OFFCURVE",
"443 713 CURVE",
"464 698 OFFCURVE",
"482 681 OFFCURVE",
"498 662 CURVE",
"516 640 OFFCURVE",
"530 616 OFFCURVE",
"537 588 CURVE",
"539 577 OFFCURVE",
"539 566 OFFCURVE",
"538 556 CURVE",
"536 503 OFFCURVE",
"528 452 OFFCURVE",
"518 401 CURVE",
"510 358 OFFCURVE",
"497 317 OFFCURVE",
"484 275 CURVE",
"473 240 OFFCURVE",
"462 204 OFFCURVE",
"448 170 CURVE",
"428 120 OFFCURVE",
"405 71 OFFCURVE",
"363 35 CURVE",
"339 15 OFFCURVE",
"312 -2 OFFCURVE",
"284 -17 CURVE",
"266 -26 OFFCURVE",
"250 -38 OFFCURVE",
"232 -47 CURVE"
);
},
{
closed = 1;
nodes = (
"448 212 OFFCURVE",
"447 211 OFFCURVE",
"447 211 CURVE",
"444 211 OFFCURVE",
"445 213 OFFCURVE",
"445 214 CURVE",
"446 215 OFFCURVE",
"447 215 OFFCURVE",
"448 216 CURVE",
"448 215 OFFCURVE",
"449 214 OFFCURVE",
"449 213 CURVE"
);
},
{
closed = 1;
nodes = (
"426 -54 OFFCURVE",
"406 -40 OFFCURVE",
"382 -32 CURVE",
"353 -22 OFFCURVE",
"328 -4 OFFCURVE",
"303 12 CURVE",
"274 30 OFFCURVE",
"245 47 OFFCURVE",
"218 67 CURVE",
"214 69 OFFCURVE",
"211 72 OFFCURVE",
"213 76 CURVE",
"215 81 OFFCURVE",
"220 83 OFFCURVE",
"225 81 CURVE",
"228 80 OFFCURVE",
"230 79 OFFCURVE",
"232 77 CURVE",
"250 63 OFFCURVE",
"270 52 OFFCURVE",
"289 40 CURVE",
"304 31 OFFCURVE",
"319 21 OFFCURVE",
"333 11 CURVE",
"353 -2 OFFCURVE",
"373 -13 OFFCURVE",
"395 -21 CURVE",
"419 -30 OFFCURVE",
"440 -43 OFFCURVE",
"462 -55 CURVE",
"465 -56 OFFCURVE",
"468 -57 OFFCURVE",
"467 -60 CURVE",
"467 -63 OFFCURVE",
"464 -64 OFFCURVE",
"462 -65 CURVE",
"460 -65 OFFCURVE",
"458 -65 OFFCURVE",
"456 -66 CURVE",
"452 -68 OFFCURVE",
"452 -68 OFFCURVE",
"448 -66 CURVE"
);
}
);
width = 546;
}
);
unicode = 0051;
},
{
glyphname = R;
lastChange = "2020-05-30 07:59:30 +0000";
layers = (
{
layerId = "489FF050-567D-4B2A-9DE5-E24268F9D2E9";
paths = (
{
closed = 1;
nodes = (
"173 679 OFFCURVE",
"131 676 OFFCURVE",
"89 673 CURVE",
"74 672 OFFCURVE",
"74 671 OFFCURVE",
"73 657 CURVE",
"72 621 OFFCURVE",
"71 585 OFFCURVE",
"66 549 CURVE",
"62 515 OFFCURVE",
"59 482 OFFCURVE",
"54 449 CURVE",
"47 406 OFFCURVE",
"43 363 OFFCURVE",
"41 320 CURVE",
"40 308 OFFCURVE",
"44 305 OFFCURVE",
"54 311 CURVE",
"65 316 OFFCURVE",
"76 319 OFFCURVE",
"88 318 CURVE",
"91 318 OFFCURVE",
"94 319 OFFCURVE",
"97 320 CURVE",
"113 326 OFFCURVE",
"130 329 OFFCURVE",
"148 330 CURVE",
"169 330 OFFCURVE",
"191 331 OFFCURVE",
"212 335 CURVE",
"218 336 OFFCURVE",
"221 337 OFFCURVE",
"224 342 CURVE",
"232 354 OFFCURVE",
"240 355 OFFCURVE",
"254 348 CURVE",
"257 347 OFFCURVE",
"260 344 OFFCURVE",
"262 346 CURVE",
"270 356 OFFCURVE",
"283 357 OFFCURVE",
"293 363 CURVE",
"307 371 OFFCURVE",
"316 385 OFFCURVE",
"332 390 CURVE",
"354 398 OFFCURVE",
"370 417 OFFCURVE",
"386 432 CURVE",
"404 449 OFFCURVE",
"419 470 OFFCURVE",
"432 493 CURVE",
"451 525 OFFCURVE",
"459 559 OFFCURVE",
"456 596 CURVE",
"455 607 OFFCURVE",
"453 616 OFFCURVE",
"445 624 CURVE",
"415 653 OFFCURVE",
"379 671 OFFCURVE",
"337 677 CURVE",
"296 682 OFFCURVE",
"255 682 OFFCURVE",
"207 681 CURVE"
);
},
{
closed = 1;
nodes = (
"90 298 OFFCURVE",
"91 296 OFFCURVE",
"92 295 CURVE",
"95 293 OFFCURVE",
"98 291 OFFCURVE",
"97 288 CURVE",
"96 283 OFFCURVE",
"91 284 OFFCURVE",
"88 284 CURVE",
"75 284 OFFCURVE",
"63 284 OFFCURVE",
"50 284 CURVE",
"42 285 OFFCURVE",
"38 280 OFFCURVE",
"37 272 CURVE",
"37 269 OFFCURVE",
"36 265 OFFCURVE",
"36 261 CURVE",
"36 228 OFFCURVE",
"32 196 OFFCURVE",
"31 163 CURVE",
"29 130 OFFCURVE",
"25 97 OFFCURVE",
"24 65 CURVE",
"24 58 OFFCURVE",
"24 51 OFFCURVE",
"28 45 CURVE",
"33 35 OFFCURVE",
"29 27 OFFCURVE",
"18 23 CURVE",
"9 19 OFFCURVE",
"2 24 OFFCURVE",
"3 34 CURVE",
"7 95 OFFCURVE",
"5 156 OFFCURVE",
"11 218 CURVE",
"15 256 OFFCURVE",
"12 294 OFFCURVE",
"15 331 CURVE",
"17 360 OFFCURVE",
"16 390 OFFCURVE",
"22 419 CURVE",
"31 463 OFFCURVE",
"33 508 OFFCURVE",
"38 552 CURVE",
"41 587 OFFCURVE",
"45 622 OFFCURVE",
"45 656 CURVE",
"45 661 OFFCURVE",
"47 667 OFFCURVE",
"44 671 CURVE",
"36 681 OFFCURVE",
"43 690 OFFCURVE",
"45 699 CURVE",
"47 706 OFFCURVE",
"50 710 OFFCURVE",
"58 710 CURVE",
"65 711 OFFCURVE",
"70 709 OFFCURVE",
"72 702 CURVE",
"74 694 OFFCURVE",
"77 694 OFFCURVE",
"84 695 CURVE",
"148 702 OFFCURVE",
"212 703 OFFCURVE",
"276 703 CURVE",
"303 704 OFFCURVE",
"331 703 OFFCURVE",
"358 698 CURVE",
"384 693 OFFCURVE",
"409 685 OFFCURVE",
"430 667 CURVE",
"443 656 OFFCURVE",
"456 645 OFFCURVE",
"468 634 CURVE",
"478 624 OFFCURVE",
"483 613 OFFCURVE",
"483 601 CURVE",
"484 571 OFFCURVE",
"485 540 OFFCURVE",
"472 513 CURVE",
"464 497 OFFCURVE",
"454 481 OFFCURVE",
"444 467 CURVE",
"423 439 OFFCURVE",
"403 412 OFFCURVE",
"373 393 CURVE",
"352 381 OFFCURVE",
"332 367 OFFCURVE",
"312 354 CURVE",
"298 345 OFFCURVE",
"284 340 OFFCURVE",
"269 334 CURVE",
"258 329 OFFCURVE",
"257 326 OFFCURVE",
"262 316 CURVE",
"281 275 OFFCURVE",
"301 235 OFFCURVE",
"317 194 CURVE",
"337 146 OFFCURVE",
"355 98 OFFCURVE",
"369 48 CURVE",
"372 39 OFFCURVE",
"376 30 OFFCURVE",
"379 20 CURVE",
"380 19 OFFCURVE",
"381 17 OFFCURVE",
"382 15 CURVE",
"384 8 OFFCURVE",
"387 0 OFFCURVE",
"380 -5 CURVE",
"374 -10 OFFCURVE",
"358 -5 OFFCURVE",
"354 2 CURVE",
"352 6 OFFCURVE",
"351 9 OFFCURVE",
"350 13 CURVE",
"336 55 OFFCURVE",
"322 98 OFFCURVE",
"308 140 CURVE",
"295 180 OFFCURVE",
"279 217 OFFCURVE",
"260 254 CURVE",
"252 271 OFFCURVE",
"245 289 OFFCURVE",
"239 307 CURVE",
"236 314 OFFCURVE",
"233 319 OFFCURVE",
"224 318 CURVE",
"191 312 OFFCURVE",
"158 312 OFFCURVE",
"125 309 CURVE",
"113 309 OFFCURVE",
"101 305 OFFCURVE",
"87 301 CURVE"
);
}
);
width = 490;
}
);
unicode = 0052;
},
{
glyphname = S;
lastChange = "2020-05-30 07:59:39 +0000";
layers = (
{
layerId = "489FF050-567D-4B2A-9DE5-E24268F9D2E9";
paths = (
{
closed = 1;
nodes = (
"49 577 OFFCURVE",
"49 567 OFFCURVE",
"52 557 CURVE",
"60 526 OFFCURVE",
"66 495 OFFCURVE",
"79 465 CURVE",
"85 452 OFFCURVE",
"93 440 OFFCURVE",
"103 432 CURVE",
"113 425 OFFCURVE",
"121 417 OFFCURVE",
"128 408 CURVE",
"148 382 OFFCURVE",
"174 368 OFFCURVE",
"206 360 CURVE",
"237 353 OFFCURVE",
"267 341 OFFCURVE",
"296 325 CURVE",
"315 315 OFFCURVE",
"335 305 OFFCURVE",
"355 299 CURVE",
"378 294 OFFCURVE",
"391 279 OFFCURVE",
"403 263 CURVE",
"422 237 OFFCURVE",
"441 211 OFFCURVE",
"458 183 CURVE",
"483 143 OFFCURVE",
"490 98 OFFCURVE",
"476 51 CURVE",
"475 46 OFFCURVE",
"471 43 OFFCURVE",
"468 39 CURVE",
"426 -1 OFFCURVE",
"376 -24 OFFCURVE",
"320 -34 CURVE",
"294 -39 OFFCURVE",
"268 -40 OFFCURVE",
"242 -35 CURVE",
"223 -32 OFFCURVE",
"205 -30 OFFCURVE",
"186 -31 CURVE",
"167 -31 OFFCURVE",
"149 -29 OFFCURVE",
"130 -27 CURVE",
"110 -25 OFFCURVE",
"91 -19 OFFCURVE",
"75 -6 CURVE",
"64 4 OFFCURVE",
"51 9 OFFCURVE",
"38 14 CURVE",
"26 19 OFFCURVE",
"19 27 OFFCURVE",
"10 35 CURVE",
"4 41 OFFCURVE",
"10 44 OFFCURVE",
"12 48 CURVE",
"15 53 OFFCURVE",
"18 50 OFFCURVE",
"21 48 CURVE",
"46 28 OFFCURVE",
"76 16 OFFCURVE",
"103 0 CURVE",
"127 -15 OFFCURVE",
"152 -13 OFFCURVE",
"178 -14 CURVE",
"204 -16 OFFCURVE",
"230 -13 OFFCURVE",
"256 -19 CURVE",
"275 -23 OFFCURVE",
"293 -15 OFFCURVE",
"311 -14 CURVE",
"316 -14 OFFCURVE",
"321 -12 OFFCURVE",
"326 -14 CURVE",
"336 -18 OFFCURVE",
"347 -14 OFFCURVE",
"354 -10 CURVE",
"371 1 OFFCURVE",
"389 8 OFFCURVE",
"407 18 CURVE",
"448 41 OFFCURVE",
"463 71 OFFCURVE",
"456 116 CURVE",
"453 133 OFFCURVE",
"448 149 OFFCURVE",
"440 164 CURVE",
"423 198 OFFCURVE",
"399 228 OFFCURVE",
"376 258 CURVE",
"363 275 OFFCURVE",
"344 285 OFFCURVE",
"325 291 CURVE",
"295 302 OFFCURVE",
"266 317 OFFCURVE",
"237 330 CURVE",
"223 337 OFFCURVE",
"208 340 OFFCURVE",
"192 344 CURVE",
"165 350 OFFCURVE",
"139 361 OFFCURVE",
"120 383 CURVE",
"113 390 OFFCURVE",
"107 396 OFFCURVE",
"100 403 CURVE",
"69 432 OFFCURVE",
"49 467 OFFCURVE",
"40 508 CURVE",
"37 525 OFFCURVE",
"32 542 OFFCURVE",
"28 559 CURVE",
"26 566 OFFCURVE",
"25 574 OFFCURVE",
"25 583 CURVE",
"26 595 OFFCURVE",
"29 607 OFFCURVE",
"28 619 CURVE",
"26 629 OFFCURVE",
"32 638 OFFCURVE",
"36 646 CURVE",
"47 665 OFFCURVE",
"62 681 OFFCURVE",
"81 692 CURVE",
"123 717 OFFCURVE",
"169 732 OFFCURVE",
"216 740 CURVE",
"260 749 OFFCURVE",
"305 748 OFFCURVE",
"345 720 CURVE",
"351 715 OFFCURVE",
"359 712 OFFCURVE",
"366 708 CURVE",
"371 705 OFFCURVE",
"373 701 OFFCURVE",
"372 696 CURVE",
"369 689 OFFCURVE",
"365 687 OFFCURVE",
"358 688 CURVE",
"354 688 OFFCURVE",
"350 690 OFFCURVE",
"347 693 CURVE",
"320 712 OFFCURVE",
"291 721 OFFCURVE",
"258 719 CURVE",
"209 716 OFFCURVE",
"163 706 OFFCURVE",
"119 685 CURVE",
"88 670 OFFCURVE",
"62 650 OFFCURVE",
"52 615 CURVE",
"49 605 OFFCURVE",
"50 596 OFFCURVE",
"49 587 CURVE"
);
},
{
closed = 1;
nodes = (
"324 665 OFFCURVE",
"335 670 OFFCURVE",
"347 674 CURVE",
"340 653 OFFCURVE",
"329 650 OFFCURVE",
"309 664 CURVE"
);
}
);
width = 490;
}
);
unicode = 0053;
},
{
glyphname = T;
lastChange = "2020-05-30 07:59:55 +0000";
layers = (
{
layerId = "489FF050-567D-4B2A-9DE5-E24268F9D2E9";
paths = (
{
closed = 1;
nodes = (
"160 604 OFFCURVE",
"158 569 OFFCURVE",
"159 535 CURVE",
"160 470 OFFCURVE",
"150 405 OFFCURVE",
"151 340 CURVE",
"151 308 OFFCURVE",
"152 277 OFFCURVE",
"151 245 CURVE",
"150 198 OFFCURVE",
"151 151 OFFCURVE",
"156 105 CURVE",
"161 58 OFFCURVE",
"162 10 OFFCURVE",
"175 -36 CURVE",
"177 -45 OFFCURVE",
"173 -48 OFFCURVE",
"161 -50 CURVE",
"152 -52 OFFCURVE",
"152 -47 OFFCURVE",
"150 -41 CURVE",
"143 -9 OFFCURVE",
"141 23 OFFCURVE",
"136 56 CURVE",
"130 96 OFFCURVE",
"129 137 OFFCURVE",
"128 177 CURVE",
"127 227 OFFCURVE",
"128 278 OFFCURVE",
"128 328 CURVE",
"127 381 OFFCURVE",
"131 433 OFFCURVE",
"134 486 CURVE",
"134 489 OFFCURVE",
"135 493 OFFCURVE",
"135 496 CURVE",
"133 558 OFFCURVE",
"135 621 OFFCURVE",
"138 683 CURVE",
"138 692 OFFCURVE",
"136 694 OFFCURVE",
"127 694 CURVE",
"103 692 OFFCURVE",
"79 690 OFFCURVE",
"55 688 CURVE",
"45 687 OFFCURVE",
"34 686 OFFCURVE",
"24 686 CURVE",
"19 685 OFFCURVE",
"15 686 OFFCURVE",
"12 690 CURVE",
"7 695 OFFCURVE",
"9 701 OFFCURVE",
"15 703 CURVE",
"19 703 OFFCURVE",
"22 703 OFFCURVE",
"26 704 CURVE",
"77 710 OFFCURVE",
"127 717 OFFCURVE",
"179 718 CURVE",
"209 718 OFFCURVE",
"240 721 OFFCURVE",
"270 724 CURVE",
"281 725 OFFCURVE",
"291 729 OFFCURVE",
"301 732 CURVE",
"304 733 OFFCURVE",
"308 735 OFFCURVE",
"311 735 CURVE",
"316 736 OFFCURVE",
"321 735 OFFCURVE",
"324 729 CURVE",
"326 724 OFFCURVE",
"321 721 OFFCURVE",
"318 719 CURVE",
"310 712 OFFCURVE",
"300 709 OFFCURVE",
"290 706 CURVE",
"264 699 OFFCURVE",
"238 699 OFFCURVE",
"211 699 CURVE",
"199 699 OFFCURVE",
"186 698 OFFCURVE",
"174 696 CURVE",
"167 695 OFFCURVE",
"164 691 OFFCURVE",
"163 684 CURVE",
"161 669 OFFCURVE",
"162 654 OFFCURVE",
"161 638 CURVE"
);
}
);
width = 330;
}
);
unicode = 0054;
},
{
glyphname = U;
lastChange = "2020-05-30 08:00:04 +0000";
layers = (
{
layerId = "489FF050-567D-4B2A-9DE5-E24268F9D2E9";
paths = (
{
closed = 1;
nodes = (
"435 400 OFFCURVE",
"434 410 OFFCURVE",
"435 420 CURVE",
"441 463 OFFCURVE",
"437 507 OFFCURVE",
"440 550 CURVE",
"440 559 OFFCURVE",
"439 568 OFFCURVE",
"436 576 CURVE",
"435 579 OFFCURVE",
"435 584 OFFCURVE",
"438 587 CURVE",
"442 590 OFFCURVE",
"446 588 OFFCURVE",
"450 586 CURVE",
"458 583 OFFCURVE",
"463 576 OFFCURVE",
"469 571 CURVE",
"472 568 OFFCURVE",
"472 565 OFFCURVE",
"471 561 CURVE",
"466 536 OFFCURVE",
"464 511 OFFCURVE",
"468 485 CURVE",
"471 470 OFFCURVE",
"466 453 OFFCURVE",
"464 437 CURVE",
"462 425 OFFCURVE",
"461 412 OFFCURVE",
"464 400 CURVE",
"467 387 OFFCURVE",
"463 374 OFFCURVE",
"462 361 CURVE",
"458 329 OFFCURVE",
"457 297 OFFCURVE",
"451 265 CURVE",
"443 217 OFFCURVE",
"429 171 OFFCURVE",
"408 127 CURVE",
"392 92 OFFCURVE",
"373 58 OFFCURVE",
"350 28 CURVE",
"342 17 OFFCURVE",
"335 6 OFFCURVE",
"327 -4 CURVE",
"314 -21 OFFCURVE",
"295 -30 OFFCURVE",
"274 -31 CURVE",
"239 -33 OFFCURVE",
"205 -28 OFFCURVE",
"174 -14 CURVE",
"158 -7 OFFCURVE",
"146 4 OFFCURVE",
"136 19 CURVE",
"119 46 OFFCURVE",
"105 75 OFFCURVE",
"93 105 CURVE",
"88 118 OFFCURVE",
"80 131 OFFCURVE",
"75 144 CURVE",
"60 177 OFFCURVE",
"47 210 OFFCURVE",
"44 246 CURVE",
"43 258 OFFCURVE",
"38 268 OFFCURVE",
"34 278 CURVE",
"24 308 OFFCURVE",
"21 339 OFFCURVE",
"17 370 CURVE",
"14 397 OFFCURVE",
"12 424 OFFCURVE",
"8 451 CURVE",
"2 494 OFFCURVE",
"7 536 OFFCURVE",
"7 579 CURVE",
"8 599 OFFCURVE",
"14 618 OFFCURVE",
"13 638 CURVE",
"13 644 OFFCURVE",
"18 648 OFFCURVE",
"19 653 CURVE",
"25 671 OFFCURVE",
"33 687 OFFCURVE",
"36 705 CURVE",
"38 713 OFFCURVE",
"42 718 OFFCURVE",
"50 720 CURVE",
"60 721 OFFCURVE",
"65 716 OFFCURVE",
"63 707 CURVE",
"61 696 OFFCURVE",
"59 685 OFFCURVE",
"55 676 CURVE",
"39 635 OFFCURVE",
"34 593 OFFCURVE",
"34 550 CURVE",
"34 502 OFFCURVE",
"35 455 OFFCURVE",
"42 408 CURVE",
"47 373 OFFCURVE",
"52 338 OFFCURVE",
"59 304 CURVE",
"66 274 OFFCURVE",
"74 245 OFFCURVE",
"80 215 CURVE",
"86 190 OFFCURVE",
"99 167 OFFCURVE",
"107 142 CURVE",
"114 120 OFFCURVE",
"128 102 OFFCURVE",
"135 80 CURVE",
"144 54 OFFCURVE",
"160 30 OFFCURVE",
"184 14 CURVE",
"188 11 OFFCURVE",
"192 8 OFFCURVE",
"197 6 CURVE",
"232 -6 OFFCURVE",
"266 -8 OFFCURVE",
"300 9 CURVE",
"310 14 OFFCURVE",
"318 23 OFFCURVE",
"324 32 CURVE",
"372 99 OFFCURVE",
"404 173 OFFCURVE",
"420 255 CURVE",
"429 299 OFFCURVE",
"433 344 OFFCURVE",
"435 390 CURVE"
);
}
);
width = 480;
}
);
unicode = 0055;
},
{
glyphname = V;
lastChange = "2020-05-30 08:00:15 +0000";
layers = (
{
layerId = "489FF050-567D-4B2A-9DE5-E24268F9D2E9";
paths = (
{
closed = 1;
nodes = (
"431 636 OFFCURVE",
"430 633 OFFCURVE",
"429 629 CURVE",
"414 594 OFFCURVE",
"400 558 OFFCURVE",
"383 523 CURVE",
"366 487 OFFCURVE",
"348 452 OFFCURVE",
"334 415 CURVE",
"324 389 OFFCURVE",
"311 364 OFFCURVE",
"302 337 CURVE",
"290 297 OFFCURVE",
"274 258 OFFCURVE",
"258 219 CURVE",
"244 183 OFFCURVE",
"229 148 OFFCURVE",
"214 112 CURVE",
"205 91 OFFCURVE",
"195 69 OFFCURVE",
"190 46 CURVE",
"188 35 OFFCURVE",
"181 26 OFFCURVE",
"180 14 CURVE",
"179 6 OFFCURVE",
"171 3 OFFCURVE",
"164 4 CURVE",
"156 7 OFFCURVE",
"149 15 OFFCURVE",
"151 21 CURVE",
"153 30 OFFCURVE",
"157 39 OFFCURVE",
"160 48 CURVE",
"170 80 OFFCURVE",
"184 110 OFFCURVE",
"196 141 CURVE",
"205 162 OFFCURVE",
"212 184 OFFCURVE",
"222 205 CURVE",
"231 225 OFFCURVE",
"242 245 OFFCURVE",
"250 266 CURVE",
"255 278 OFFCURVE",
"258 291 OFFCURVE",
"261 303 CURVE",
"268 336 OFFCURVE",
"285 364 OFFCURVE",
"296 395 CURVE",
"303 415 OFFCURVE",
"312 435 OFFCURVE",
"320 454 CURVE",
"331 477 OFFCURVE",
"343 501 OFFCURVE",
"355 524 CURVE",
"372 560 OFFCURVE",
"389 596 OFFCURVE",
"402 633 CURVE",
"403 637 OFFCURVE",
"405 642 OFFCURVE",
"406 646 CURVE",
"409 652 OFFCURVE",
"414 654 OFFCURVE",
"420 652 CURVE",
"427 651 OFFCURVE",
"432 646 OFFCURVE",
"432 639 CURVE"
);
},
{
closed = 1;
nodes = (
"123 45 OFFCURVE",
"118 48 OFFCURVE",
"116 59 CURVE",
"114 71 OFFCURVE",
"111 84 OFFCURVE",
"108 97 CURVE",
"96 141 OFFCURVE",
"96 185 OFFCURVE",
"94 230 CURVE",
"94 233 OFFCURVE",
"94 236 OFFCURVE",
"94 239 CURVE",
"85 268 OFFCURVE",
"83 298 OFFCURVE",
"75 326 CURVE",
"69 348 OFFCURVE",
"60 370 OFFCURVE",
"61 393 CURVE",
"61 396 OFFCURVE",
"60 400 OFFCURVE",
"58 402 CURVE",
"53 414 OFFCURVE",
"52 427 OFFCURVE",
"50 440 CURVE",
"42 484 OFFCURVE",
"35 527 OFFCURVE",
"26 570 CURVE",
"20 600 OFFCURVE",
"11 629 OFFCURVE",
"6 659 CURVE",
"6 662 OFFCURVE",
"6 664 OFFCURVE",
"5 667 CURVE",
"3 680 OFFCURVE",
"6 685 OFFCURVE",
"15 687 CURVE",
"26 689 OFFCURVE",
"32 684 OFFCURVE",
"35 672 CURVE",
"37 665 OFFCURVE",
"38 657 OFFCURVE",
"40 649 CURVE",
"47 601 OFFCURVE",
"60 554 OFFCURVE",
"68 507 CURVE",
"74 474 OFFCURVE",
"82 442 OFFCURVE",
"84 409 CURVE",
"85 399 OFFCURVE",
"92 391 OFFCURVE",
"94 381 CURVE",
"97 357 OFFCURVE",
"107 333 OFFCURVE",
"107 308 CURVE",
"107 305 OFFCURVE",
"107 302 OFFCURVE",
"108 299 CURVE",
"118 275 OFFCURVE",
"116 248 OFFCURVE",
"120 223 CURVE",
"126 179 OFFCURVE",
"123 135 OFFCURVE",
"136 92 CURVE",
"139 83 OFFCURVE",
"143 75 OFFCURVE",
"146 66 CURVE",
"152 54 OFFCURVE",
"146 46 OFFCURVE",
"131 46 CURVE"
);
}
);
width = 437;
}
);
unicode = 0056;
},
{
glyphname = W;
lastChange = "2020-05-30 08:00:27 +0000";
layers = (
{
layerId = "489FF050-567D-4B2A-9DE5-E24268F9D2E9";
paths = (
{
closed = 1;
nodes = (
"511 86 OFFCURVE",
"506 85 OFFCURVE",
"504 82 CURVE",
"498 74 OFFCURVE",
"491 73 OFFCURVE",
"483 79 CURVE",
"474 87 OFFCURVE",
"466 88 OFFCURVE",
"458 78 CURVE",
"455 73 OFFCURVE",
"449 71 OFFCURVE",
"443 73 CURVE",
"437 74 OFFCURVE",
"432 76 OFFCURVE",
"436 84 CURVE",
"440 94 OFFCURVE",
"441 106 OFFCURVE",
"447 115 CURVE",
"457 129 OFFCURVE",
"450 145 OFFCURVE",
"442 155 CURVE",
"431 170 OFFCURVE",
"427 188 OFFCURVE",
"418 203 CURVE",
"396 240 OFFCURVE",
"382 280 OFFCURVE",
"359 317 CURVE",
"348 336 OFFCURVE",
"341 358 OFFCURVE",
"332 378 CURVE",
"331 382 OFFCURVE",
"330 386 OFFCURVE",
"326 387 CURVE",
"321 388 OFFCURVE",
"320 383 OFFCURVE",
"317 379 CURVE",
"290 339 OFFCURVE",
"273 294 OFFCURVE",
"256 249 CURVE",
"239 205 OFFCURVE",
"225 160 OFFCURVE",
"212 115 CURVE",
"209 105 OFFCURVE",
"206 95 OFFCURVE",
"204 84 CURVE",
"202 71 OFFCURVE",
"198 59 OFFCURVE",
"193 47 CURVE",
"184 22 OFFCURVE",
"174 -3 OFFCURVE",
"180 -31 CURVE",
"182 -38 OFFCURVE",
"176 -46 OFFCURVE",
"170 -45 CURVE",
"163 -44 OFFCURVE",
"158 -39 OFFCURVE",
"159 -32 CURVE",
"162 -18 OFFCURVE",
"158 -4 OFFCURVE",
"157 10 CURVE",
"156 19 OFFCURVE",
"160 25 OFFCURVE",
"161 32 CURVE",
"165 57 OFFCURVE",
"164 83 OFFCURVE",
"154 105 CURVE",
"144 129 OFFCURVE",
"139 155 OFFCURVE",
"128 178 CURVE",
"116 201 OFFCURVE",
"110 227 OFFCURVE",
"101 252 CURVE",
"83 302 OFFCURVE",
"75 355 OFFCURVE",
"63 407 CURVE",
"53 452 OFFCURVE",
"46 499 OFFCURVE",
"31 543 CURVE",
"18 582 OFFCURVE",
"14 623 OFFCURVE",
"11 664 CURVE",
"10 678 OFFCURVE",
"9 691 OFFCURVE",
"6 705 CURVE",
"4 717 OFFCURVE",
"7 722 OFFCURVE",
"17 724 CURVE",
"31 726 OFFCURVE",
"36 723 OFFCURVE",
"37 709 CURVE",
"39 694 OFFCURVE",
"41 678 OFFCURVE",
"42 663 CURVE",
"45 614 OFFCURVE",
"56 567 OFFCURVE",
"68 520 CURVE",
"77 487 OFFCURVE",
"88 453 OFFCURVE",
"90 418 CURVE",
"90 410 OFFCURVE",
"95 403 OFFCURVE",
"96 395 CURVE",
"100 376 OFFCURVE",
"105 357 OFFCURVE",
"108 339 CURVE",
"112 317 OFFCURVE",
"121 297 OFFCURVE",
"126 276 CURVE",
"132 252 OFFCURVE",
"143 230 OFFCURVE",
"151 206 CURVE",
"156 189 OFFCURVE",
"163 171 OFFCURVE",
"165 153 CURVE",
"166 143 OFFCURVE",
"173 135 OFFCURVE",
"179 124 CURVE",
"187 136 OFFCURVE",
"191 146 OFFCURVE",
"194 157 CURVE",
"205 205 OFFCURVE",
"224 249 OFFCURVE",
"241 295 CURVE",
"257 338 OFFCURVE",
"281 377 OFFCURVE",
"305 417 CURVE",
"310 424 OFFCURVE",
"315 431 OFFCURVE",
"311 441 CURVE",
"308 448 OFFCURVE",
"313 452 OFFCURVE",
"320 454 CURVE",
"330 457 OFFCURVE",
"349 445 OFFCURVE",
"347 435 CURVE",
"343 415 OFFCURVE",
"354 399 OFFCURVE",
"359 381 CURVE",
"363 367 OFFCURVE",
"371 354 OFFCURVE",
"377 341 CURVE",
"394 306 OFFCURVE",
"410 270 OFFCURVE",
"429 236 CURVE",
"440 215 OFFCURVE",
"447 193 OFFCURVE",
"459 173 CURVE",
"467 175 OFFCURVE",
"468 181 OFFCURVE",
"470 186 CURVE",
"475 196 OFFCURVE",
"480 206 OFFCURVE",
"483 217 CURVE",
"491 246 OFFCURVE",
"510 271 OFFCURVE",
"514 302 CURVE",
"516 316 OFFCURVE",
"522 330 OFFCURVE",
"528 344 CURVE",
"543 382 OFFCURVE",
"553 422 OFFCURVE",
"563 461 CURVE",
"568 481 OFFCURVE",
"574 499 OFFCURVE",
"581 518 CURVE",
"585 530 OFFCURVE",
"586 543 OFFCURVE",
"590 556 CURVE",
"598 585 OFFCURVE",
"604 615 OFFCURVE",
"611 644 CURVE",
"617 668 OFFCURVE",
"623 691 OFFCURVE",
"626 715 CURVE",
"628 727 OFFCURVE",
"640 731 OFFCURVE",
"648 723 CURVE",
"652 719 OFFCURVE",
"652 715 OFFCURVE",
"651 709 CURVE",
"642 657 OFFCURVE",
"629 606 OFFCURVE",
"615 555 CURVE",
"612 543 OFFCURVE",
"612 531 OFFCURVE",
"609 518 CURVE",
"597 472 OFFCURVE",
"580 427 OFFCURVE",
"568 381 CURVE",
"560 352 OFFCURVE",
"551 324 OFFCURVE",
"541 296 CURVE",
"525 252 OFFCURVE",
"509 208 OFFCURVE",
"493 163 CURVE",
"491 157 OFFCURVE",
"487 152 OFFCURVE",
"485 146 CURVE",
"479 123 OFFCURVE",
"485 106 OFFCURVE",
"512 92 CURVE"
);
}
);
width = 657;
}
);
unicode = 0057;
},
{
glyphname = X;
lastChange = "2020-05-30 08:00:41 +0000";
layers = (
{
layerId = "489FF050-567D-4B2A-9DE5-E24268F9D2E9";
paths = (
{
closed = 1;
nodes = (
"174 332 OFFCURVE",
"169 321 OFFCURVE",
"165 309 CURVE",
"152 275 OFFCURVE",
"134 243 OFFCURVE",
"119 210 CURVE",
"105 179 OFFCURVE",
"93 147 OFFCURVE",
"81 115 CURVE",
"68 83 OFFCURVE",
"57 50 OFFCURVE",
"42 19 CURVE",
"38 12 OFFCURVE",
"34 6 OFFCURVE",
"30 0 CURVE",
"27 -5 OFFCURVE",
"23 -8 OFFCURVE",
"17 -6 CURVE",
"12 -4 OFFCURVE",
"8 1 OFFCURVE",
"7 6 CURVE",
"6 11 OFFCURVE",
"8 16 OFFCURVE",
"14 17 CURVE",
"22 19 OFFCURVE",
"23 22 OFFCURVE",
"17 28 CURVE",
"23 38 OFFCURVE",
"23 52 OFFCURVE",
"29 63 CURVE",
"41 85 OFFCURVE",
"51 109 OFFCURVE",
"58 134 CURVE",
"59 138 OFFCURVE",
"61 142 OFFCURVE",
"63 146 CURVE",
"73 163 OFFCURVE",
"77 182 OFFCURVE",
"85 199 CURVE",
"95 220 OFFCURVE",
"102 242 OFFCURVE",
"116 260 CURVE",
"124 269 OFFCURVE",
"129 279 OFFCURVE",
"129 292 CURVE",
"129 308 OFFCURVE",
"140 321 OFFCURVE",
"148 333 CURVE",
"156 346 OFFCURVE",
"158 362 OFFCURVE",
"168 373 CURVE",
"170 376 OFFCURVE",
"168 379 OFFCURVE",
"167 382 CURVE",
"152 408 OFFCURVE",
"139 435 OFFCURVE",
"122 459 CURVE",
"89 509 OFFCURVE",
"58 560 OFFCURVE",
"38 617 CURVE",
"35 623 OFFCURVE",
"32 629 OFFCURVE",
"29 635 CURVE",
"26 643 OFFCURVE",
"29 649 OFFCURVE",
"36 653 CURVE",
"42 657 OFFCURVE",
"48 655 OFFCURVE",
"53 651 CURVE",
"56 648 OFFCURVE",
"59 644 OFFCURVE",
"60 640 CURVE",
"70 609 OFFCURVE",
"85 581 OFFCURVE",
"97 551 CURVE",
"100 544 OFFCURVE",
"103 538 OFFCURVE",
"109 532 CURVE",
"120 520 OFFCURVE",
"123 504 OFFCURVE",
"133 491 CURVE",
"152 468 OFFCURVE",
"165 441 OFFCURVE",
"179 415 CURVE",
"184 405 OFFCURVE",
"187 405 OFFCURVE",
"191 413 CURVE",
"194 419 OFFCURVE",
"199 423 OFFCURVE",
"202 428 CURVE",
"215 443 OFFCURVE",
"225 459 OFFCURVE",
"234 477 CURVE",
"243 493 OFFCURVE",
"253 509 OFFCURVE",
"260 526 CURVE",
"268 545 OFFCURVE",
"276 564 OFFCURVE",
"282 583 CURVE",
"291 607 OFFCURVE",
"305 628 OFFCURVE",
"317 651 CURVE",
"330 675 OFFCURVE",
"344 700 OFFCURVE",
"357 724 CURVE",
"364 737 OFFCURVE",
"373 741 OFFCURVE",
"381 732 CURVE",
"385 728 OFFCURVE",
"387 724 OFFCURVE",
"383 717 CURVE",
"368 693 OFFCURVE",
"355 667 OFFCURVE",
"339 643 CURVE",
"321 614 OFFCURVE",
"308 583 OFFCURVE",
"297 550 CURVE",
"284 509 OFFCURVE",
"262 472 OFFCURVE",
"238 437 CURVE",
"227 420 OFFCURVE",
"217 403 OFFCURVE",
"207 386 CURVE",
"201 376 OFFCURVE",
"202 367 OFFCURVE",
"208 358 CURVE",
"221 338 OFFCURVE",
"229 316 OFFCURVE",
"240 295 CURVE",
"248 279 OFFCURVE",
"254 261 OFFCURVE",
"261 244 CURVE",
"273 212 OFFCURVE",
"285 181 OFFCURVE",
"302 151 CURVE",
"312 132 OFFCURVE",
"319 113 OFFCURVE",
"325 92 CURVE",
"330 77 OFFCURVE",
"340 64 OFFCURVE",
"348 50 CURVE",
"354 39 OFFCURVE",
"355 28 OFFCURVE",
"361 17 CURVE",
"365 11 OFFCURVE",
"358 6 OFFCURVE",
"352 4 CURVE",
"347 2 OFFCURVE",
"341 -1 OFFCURVE",
"339 6 CURVE",
"334 21 OFFCURVE",
"318 30 OFFCURVE",
"317 46 CURVE",
"315 67 OFFCURVE",
"301 83 OFFCURVE",
"294 103 CURVE",
"293 107 OFFCURVE",
"291 112 OFFCURVE",
"288 116 CURVE",
"282 121 OFFCURVE",
"280 129 OFFCURVE",
"278 136 CURVE",
"261 178 OFFCURVE",
"246 220 OFFCURVE",
"228 262 CURVE",
"216 289 OFFCURVE",
"202 315 OFFCURVE",
"185 343 CURVE"
);
}
);
width = 392;
}
);
unicode = 0058;
},
{
glyphname = Y;
lastChange = "2020-05-30 08:00:48 +0000";
layers = (
{
layerId = "489FF050-567D-4B2A-9DE5-E24268F9D2E9";
paths = (
{
closed = 1;
nodes = (
"140 194 OFFCURVE",
"140 261 OFFCURVE",
"145 328 CURVE",
"150 387 OFFCURVE",
"154 445 OFFCURVE",
"159 504 CURVE",
"160 514 OFFCURVE",
"160 522 OFFCURVE",
"151 530 CURVE",
"140 541 OFFCURVE",
"137 558 OFFCURVE",
"131 572 CURVE",
"117 601 OFFCURVE",
"100 628 OFFCURVE",
"75 648 CURVE",
"56 664 OFFCURVE",
"37 681 OFFCURVE",
"18 698 CURVE",
"14 701 OFFCURVE",
"7 705 OFFCURVE",
"12 712 CURVE",
"16 718 OFFCURVE",
"27 718 OFFCURVE",
"33 712 CURVE",
"47 697 OFFCURVE",
"62 683 OFFCURVE",
"78 671 CURVE",
"94 659 OFFCURVE",
"109 646 OFFCURVE",
"121 630 CURVE",
"133 613 OFFCURVE",
"146 595 OFFCURVE",
"153 575 CURVE",
"157 565 OFFCURVE",
"163 557 OFFCURVE",
"168 548 CURVE",
"172 541 OFFCURVE",
"175 541 OFFCURVE",
"179 549 CURVE",
"192 573 OFFCURVE",
"208 595 OFFCURVE",
"222 617 CURVE",
"228 626 OFFCURVE",
"233 635 OFFCURVE",
"240 642 CURVE",
"258 664 OFFCURVE",
"273 688 OFFCURVE",
"283 714 CURVE",
"283 716 OFFCURVE",
"284 718 OFFCURVE",
"285 719 CURVE",
"288 726 OFFCURVE",
"294 727 OFFCURVE",
"300 726 CURVE",
"305 725 OFFCURVE",
"306 719 OFFCURVE",
"306 714 CURVE",
"307 706 OFFCURVE",
"303 698 OFFCURVE",
"299 691 CURVE",
"296 685 OFFCURVE",
"293 681 OFFCURVE",
"293 674 CURVE",
"293 668 OFFCURVE",
"288 662 OFFCURVE",
"284 657 CURVE",
"255 623 OFFCURVE",
"233 584 OFFCURVE",
"208 546 CURVE",
"200 534 OFFCURVE",
"195 519 OFFCURVE",
"188 507 CURVE",
"182 497 OFFCURVE",
"185 483 OFFCURVE",
"184 471 CURVE",
"181 418 OFFCURVE",
"176 365 OFFCURVE",
"172 312 CURVE",
"170 277 OFFCURVE",
"171 241 OFFCURVE",
"170 206 CURVE",
"169 183 OFFCURVE",
"166 161 OFFCURVE",
"167 138 CURVE",
"168 109 OFFCURVE",
"168 80 OFFCURVE",
"171 51 CURVE",
"173 41 OFFCURVE",
"173 31 OFFCURVE",
"173 20 CURVE",
"173 17 OFFCURVE",
"174 14 OFFCURVE",
"173 11 CURVE",
"172 3 OFFCURVE",
"166 -1 OFFCURVE",
"157 0 CURVE",
"150 1 OFFCURVE",
"149 6 OFFCURVE",
"148 12 CURVE",
"142 50 OFFCURVE",
"139 88 OFFCURVE",
"139 127 CURVE"
);
}
);
width = 315;
}
);
unicode = 0059;
},
{
glyphname = Z;
lastChange = "2020-05-30 08:00:57 +0000";
layers = (
{
layerId = "489FF050-567D-4B2A-9DE5-E24268F9D2E9";
paths = (
{
closed = 1;
nodes = (
"466 694 OFFCURVE",
"460 694 OFFCURVE",
"453 694 CURVE",
"404 694 OFFCURVE",
"354 695 OFFCURVE",
"305 693 CURVE",
"270 693 OFFCURVE",
"235 690 OFFCURVE",
"200 688 CURVE",
"186 687 OFFCURVE",
"172 684 OFFCURVE",
"158 682 CURVE",
"154 681 OFFCURVE",
"149 680 OFFCURVE",
"145 681 CURVE",
"138 683 OFFCURVE",
"134 688 OFFCURVE",
"134 695 CURVE",
"135 702 OFFCURVE",
"141 704 OFFCURVE",
"147 705 CURVE",
"237 715 OFFCURVE",
"328 719 OFFCURVE",
"419 717 CURVE",
"444 717 OFFCURVE",
"470 719 OFFCURVE",
"495 715 CURVE",
"503 714 OFFCURVE",
"511 713 OFFCURVE",
"517 708 CURVE",
"521 705 OFFCURVE",
"523 702 OFFCURVE",
"522 696 CURVE",
"521 692 OFFCURVE",
"517 693 OFFCURVE",
"514 693 CURVE",
"506 693 OFFCURVE",
"502 687 OFFCURVE",
"500 682 CURVE",
"487 656 OFFCURVE",
"467 634 OFFCURVE",
"452 610 CURVE",
"435 584 OFFCURVE",
"416 558 OFFCURVE",
"392 537 CURVE",
"378 524 OFFCURVE",
"369 507 OFFCURVE",
"355 493 CURVE",
"341 479 OFFCURVE",
"329 463 OFFCURVE",
"316 448 CURVE",
"305 435 OFFCURVE",
"297 418 OFFCURVE",
"286 404 CURVE",
"275 389 OFFCURVE",
"265 373 OFFCURVE",
"257 357 CURVE",
"244 330 OFFCURVE",
"228 305 OFFCURVE",
"218 277 CURVE",
"217 275 OFFCURVE",
"217 273 OFFCURVE",
"216 272 CURVE",
"202 256 OFFCURVE",
"195 234 OFFCURVE",
"183 216 CURVE",
"166 192 OFFCURVE",
"151 166 OFFCURVE",
"135 140 CURVE",
"117 109 OFFCURVE",
"99 78 OFFCURVE",
"80 47 CURVE",
"75 38 OFFCURVE",
"65 32 OFFCURVE",
"65 20 CURVE",
"68 16 OFFCURVE",
"72 18 OFFCURVE",
"76 19 CURVE",
"114 22 OFFCURVE",
"151 27 OFFCURVE",
"188 34 CURVE",
"252 46 OFFCURVE",
"315 60 OFFCURVE",
"378 69 CURVE",
"406 73 OFFCURVE",
"433 77 OFFCURVE",
"460 83 CURVE",
"475 85 OFFCURVE",
"491 84 OFFCURVE",
"506 85 CURVE",
"506 85 OFFCURVE",
"507 85 OFFCURVE",
"508 85 CURVE",
"514 84 OFFCURVE",
"523 82 OFFCURVE",
"523 74 CURVE",
"523 67 OFFCURVE",
"516 66 OFFCURVE",
"509 65 CURVE",
"485 62 OFFCURVE",
"460 57 OFFCURVE",
"436 56 CURVE",
"418 55 OFFCURVE",
"402 51 OFFCURVE",
"385 47 CURVE",
"351 39 OFFCURVE",
"316 39 OFFCURVE",
"282 31 CURVE",
"255 25 OFFCURVE",
"228 19 OFFCURVE",
"201 14 CURVE",
"165 6 OFFCURVE",
"129 1 OFFCURVE",
"92 -3 CURVE",
"80 -4 OFFCURVE",
"68 -5 OFFCURVE",
"56 -6 CURVE",
"54 -6 OFFCURVE",
"51 -6 OFFCURVE",
"50 -7 CURVE",
"41 -19 OFFCURVE",
"32 -13 OFFCURVE",
"22 -10 CURVE",
"16 -8 OFFCURVE",
"10 -7 OFFCURVE",
"10 1 CURVE",
"11 7 OFFCURVE",
"16 12 OFFCURVE",
"21 13 CURVE",
"32 13 OFFCURVE",
"37 22 OFFCURVE",
"43 28 CURVE",
"45 30 OFFCURVE",
"48 31 OFFCURVE",
"48 34 CURVE",
"48 43 OFFCURVE",
"56 48 OFFCURVE",
"59 55 CURVE",
"63 63 OFFCURVE",
"75 69 OFFCURVE",
"70 82 CURVE",
"68 86 OFFCURVE",
"73 92 OFFCURVE",
"77 97 CURVE",
"84 106 OFFCURVE",
"91 115 OFFCURVE",
"98 125 CURVE",
"101 128 OFFCURVE",
"104 131 OFFCURVE",
"105 135 CURVE",
"107 153 OFFCURVE",
"118 164 OFFCURVE",
"130 176 CURVE",
"136 182 OFFCURVE",
"140 190 OFFCURVE",
"143 197 CURVE",
"148 212 OFFCURVE",
"158 222 OFFCURVE",
"166 234 CURVE",
"175 247 OFFCURVE",
"182 260 OFFCURVE",
"188 275 CURVE",
"189 278 OFFCURVE",
"189 282 OFFCURVE",
"191 284 CURVE",
"212 304 OFFCURVE",
"215 333 OFFCURVE",
"234 354 CURVE",
"235 355 OFFCURVE",
"235 357 OFFCURVE",
"235 358 CURVE",
"241 381 OFFCURVE",
"253 399 OFFCURVE",
"269 416 CURVE",
"271 418 OFFCURVE",
"272 420 OFFCURVE",
"274 422 CURVE",
"287 444 OFFCURVE",
"301 465 OFFCURVE",
"319 482 CURVE",
"335 497 OFFCURVE",
"349 515 OFFCURVE",
"361 533 CURVE",
"377 557 OFFCURVE",
"398 577 OFFCURVE",
"415 599 CURVE",
"427 615 OFFCURVE",
"437 631 OFFCURVE",
"448 648 CURVE",
"457 662 OFFCURVE",
"466 675 OFFCURVE",
"475 690 CURVE"
);
}
);
width = 529;
}
);
unicode = 005A;
},
{
glyphname = numbersign;
lastChange = "2020-05-30 08:03:13 +0000";
layers = (
{
layerId = "489FF050-567D-4B2A-9DE5-E24268F9D2E9";
paths = (
{
closed = 1;
nodes = (
"229 531 OFFCURVE",
"225 531 OFFCURVE",
"221 531 CURVE",
"202 531 OFFCURVE",
"184 531 OFFCURVE",
"165 531 CURVE",
"157 531 OFFCURVE",
"154 528 OFFCURVE",
"153 520 CURVE",
"150 490 OFFCURVE",
"146 461 OFFCURVE",
"143 431 CURVE",
"139 386 OFFCURVE",
"134 341 OFFCURVE",
"130 296 CURVE",
"129 287 OFFCURVE",
"127 278 OFFCURVE",
"127 269 CURVE",
"128 259 OFFCURVE",
"128 258 OFFCURVE",
"138 261 CURVE",
"163 266 OFFCURVE",
"189 272 OFFCURVE",
"214 276 CURVE",
"265 286 OFFCURVE",
"316 293 OFFCURVE",
"367 289 CURVE",
"371 289 OFFCURVE",
"374 289 OFFCURVE",
"378 289 CURVE",
"381 289 OFFCURVE",
"385 291 OFFCURVE",
"384 295 CURVE",
"383 307 OFFCURVE",
"389 318 OFFCURVE",
"389 330 CURVE",
"389 348 OFFCURVE",
"391 365 OFFCURVE",
"394 383 CURVE",
"400 434 OFFCURVE",
"407 484 OFFCURVE",
"414 535 CURVE",
"415 542 OFFCURVE",
"414 545 OFFCURVE",
"407 545 CURVE",
"391 543 OFFCURVE",
"376 545 OFFCURVE",
"361 541 CURVE",
"345 538 OFFCURVE",
"329 537 OFFCURVE",
"312 535 CURVE",
"286 532 OFFCURVE",
"259 531 OFFCURVE",
"233 531 CURVE"
);
},
{
closed = 1;
nodes = (
"291 544 OFFCURVE",
"346 553 OFFCURVE",
"401 558 CURVE",
"417 560 OFFCURVE",
"420 563 OFFCURVE",
"420 578 CURVE",
"421 609 OFFCURVE",
"426 640 OFFCURVE",
"424 671 CURVE",
"424 674 OFFCURVE",
"424 676 OFFCURVE",
"425 678 CURVE",
"426 682 OFFCURVE",
"430 684 OFFCURVE",
"434 684 CURVE",
"438 684 OFFCURVE",
"438 680 OFFCURVE",
"439 677 CURVE",
"446 645 OFFCURVE",
"444 614 OFFCURVE",
"440 582 CURVE",
"440 579 OFFCURVE",
"439 576 OFFCURVE",
"439 572 CURVE",
"438 565 OFFCURVE",
"440 561 OFFCURVE",
"449 561 CURVE",
"467 561 OFFCURVE",
"485 559 OFFCURVE",
"503 558 CURVE",
"506 558 OFFCURVE",
"509 559 OFFCURVE",
"512 558 CURVE",
"517 556 OFFCURVE",
"524 552 OFFCURVE",
"523 545 CURVE",
"523 539 OFFCURVE",
"515 540 OFFCURVE",
"511 539 CURVE",
"504 539 OFFCURVE",
"497 539 OFFCURVE",
"491 541 CURVE",
"476 546 OFFCURVE",
"461 544 OFFCURVE",
"447 546 CURVE",
"437 547 OFFCURVE",
"435 545 OFFCURVE",
"434 535 CURVE",
"430 483 OFFCURVE",
"422 432 OFFCURVE",
"416 381 CURVE",
"414 364 OFFCURVE",
"413 346 OFFCURVE",
"412 329 CURVE",
"411 318 OFFCURVE",
"409 307 OFFCURVE",
"405 296 CURVE",
"403 289 OFFCURVE",
"406 285 OFFCURVE",
"413 284 CURVE",
"445 283 OFFCURVE",
"474 272 OFFCURVE",
"506 272 CURVE",
"515 272 OFFCURVE",
"523 269 OFFCURVE",
"531 264 CURVE",
"534 262 OFFCURVE",
"536 259 OFFCURVE",
"534 255 CURVE",
"533 252 OFFCURVE",
"530 251 OFFCURVE",
"527 252 CURVE",
"505 253 OFFCURVE",
"483 253 OFFCURVE",
"461 260 CURVE",
"445 265 OFFCURVE",
"429 265 OFFCURVE",
"412 268 CURVE",
"406 269 OFFCURVE",
"403 267 OFFCURVE",
"401 261 CURVE",
"401 257 OFFCURVE",
"400 254 OFFCURVE",
"399 251 CURVE",
"388 184 OFFCURVE",
"382 116 OFFCURVE",
"385 48 CURVE",
"385 40 OFFCURVE",
"387 33 OFFCURVE",
"389 25 CURVE",
"389 22 OFFCURVE",
"388 19 OFFCURVE",
"385 18 CURVE",
"382 18 OFFCURVE",
"379 19 OFFCURVE",
"379 22 CURVE",
"378 34 OFFCURVE",
"364 40 OFFCURVE",
"365 53 CURVE",
"366 65 OFFCURVE",
"364 76 OFFCURVE",
"363 87 CURVE",
"360 140 OFFCURVE",
"367 191 OFFCURVE",
"377 242 CURVE",
"378 249 OFFCURVE",
"380 254 OFFCURVE",
"381 260 CURVE",
"383 269 OFFCURVE",
"380 272 OFFCURVE",
"372 272 CURVE",
"340 273 OFFCURVE",
"308 274 OFFCURVE",
"277 272 CURVE",
"255 270 OFFCURVE",
"233 265 OFFCURVE",
"212 261 CURVE",
"187 257 OFFCURVE",
"163 251 OFFCURVE",
"139 246 CURVE",
"126 243 OFFCURVE",
"124 242 OFFCURVE",
"124 230 CURVE",
"121 184 OFFCURVE",
"119 138 OFFCURVE",
"117 93 CURVE",
"116 86 OFFCURVE",
"117 80 OFFCURVE",
"117 74 CURVE",
"118 70 OFFCURVE",
"121 65 OFFCURVE",
"116 62 CURVE",
"111 59 OFFCURVE",
"105 57 OFFCURVE",
"100 57 CURVE",
"94 57 OFFCURVE",
"94 63 OFFCURVE",
"94 68 CURVE",
"94 88 OFFCURVE",
"94 108 OFFCURVE",
"95 129 CURVE",
"99 163 OFFCURVE",
"98 197 OFFCURVE",
"103 230 CURVE",
"104 238 OFFCURVE",
"100 239 OFFCURVE",
"94 238 CURVE",
"82 236 OFFCURVE",
"71 234 OFFCURVE",
"59 232 CURVE",
"45 229 OFFCURVE",
"31 233 OFFCURVE",
"17 229 CURVE",
"13 228 OFFCURVE",
"10 230 OFFCURVE",
"9 233 CURVE",
"8 236 OFFCURVE",
"9 239 OFFCURVE",
"11 241 CURVE",
"16 246 OFFCURVE",
"22 248 OFFCURVE",
"30 248 CURVE",
"51 247 OFFCURVE",
"72 248 OFFCURVE",
"94 252 CURVE",
"103 253 OFFCURVE",
"106 257 OFFCURVE",
"106 266 CURVE",
"108 302 OFFCURVE",
"110 338 OFFCURVE",
"113 375 CURVE",
"115 398 OFFCURVE",
"120 422 OFFCURVE",
"123 445 CURVE",
"126 470 OFFCURVE",
"128 496 OFFCURVE",
"132 521 CURVE",
"132 529 OFFCURVE",
"129 530 OFFCURVE",
"122 530 CURVE",
"105 529 OFFCURVE",
"88 529 OFFCURVE",
"71 528 CURVE",
"67 528 OFFCURVE",
"62 528 OFFCURVE",
"62 533 CURVE",
"61 538 OFFCURVE",
"64 541 OFFCURVE",
"68 542 CURVE",
"74 545 OFFCURVE",
"80 545 OFFCURVE",
"86 543 CURVE",
"100 538 OFFCURVE",
"113 544 OFFCURVE",
"126 544 CURVE",
"130 543 OFFCURVE",
"132 546 OFFCURVE",
"133 550 CURVE",
"133 551 OFFCURVE",
"133 552 OFFCURVE",
"133 554 CURVE",
"132 592 OFFCURVE",
"141 630 OFFCURVE",
"139 669 CURVE",
"139 673 OFFCURVE",
"138 678 OFFCURVE",
"142 682 CURVE",
"145 685 OFFCURVE",
"149 687 OFFCURVE",
"154 685 CURVE",
"160 683 OFFCURVE",
"164 678 OFFCURVE",
"163 672 CURVE",
"160 657 OFFCURVE",
"162 641 OFFCURVE",
"160 626 CURVE",
"158 603 OFFCURVE",
"158 579 OFFCURVE",
"155 555 CURVE",
"155 547 OFFCURVE",
"158 544 OFFCURVE",
"166 544 CURVE",
"189 544 OFFCURVE",
"212 544 OFFCURVE",
"235 544 CURVE"
);
}
);
width = 540;
}
);
unicode = 0023;
},
